999
FreeCAD v1.0 39319 (Git)
  0
SECTION
  2
HEADER
  9
$ACADVER
  1
AC1014
  9
$ACADMAINTVER
 70
     9
  9
$DWGCODEPAGE
  3
ANSI_1252
  9
$TEXTSTYLE
  7
STANDARD
  9
$DIMSTYLE
  2
STANDARD
  9
$DIMTXSTY
  7
STANDARD
  9
$CMLSTYLE
  2
STANDARD
  9
$LUNITS
 70
2
  9
$INSUNITS
 70
4
  9
$PEXTMAX
 10
50
 20
50
 30
50
  9
$PEXTMIN
 10
0
 20
0
 30
0
  9
$HANDSEED
  5
FFFF
  0
ENDSEC
  0
SECTION
  2
CLASSES
  0
CLASS
  1
ACDBDICTIONARYWDFLT
  2
AcDbDictionaryWithDefault
  3
ObjectDBX Classes
 90
        0
280
     0
281
     0
  0
CLASS
  1
XRECORD
  2
AcDbXrecord
  3
ObjectDBX Classes
 90
        0
280
     0
281
     0
  0
CLASS
  1
LWPOLYLINE
  2
AcDbPolyline
  3
ObjectDBX Classes
 90
        0
280
     0
281
     1
  0
ENDSEC
  0
SECTION
  2
TABLES
  0
TABLE
  2
VPORT
  5
20
330
0
100
AcDbSymbolTable
 70
     1
  0
VPORT
  5
21
330
20
100
AcDbSymbolTableRecord
100
AcDbViewportTableRecord
  2
*ACTIVE
 70
     0
  0
ENDTAB
  0
TABLE
  2
LTYPE
  5
22
330
0
100
AcDbSymbolTable
 70
     1
  0
LTYPE
  5
23
330
21
100
AcDbSymbolTableRecord
100
AcDbLinetypeTableRecord
  2
BYBLOCK
 70
     0
  3

 72
    65
 73
     0
 40
0.0
  0
LTYPE
  5
24
330
21
100
AcDbSymbolTableRecord
100
AcDbLinetypeTableRecord
  2
BYLAYER
 70
     0
  3

 72
    65
 73
     0
 40
0.0
  0
LTYPE
  5
25
330
21
100
AcDbSymbolTableRecord
100
AcDbLinetypeTableRecord
  2
CONTINUOUS
 70
     0
  3
Solid line
 72
    65
 73
     0
 40
0.0
  0
ENDTAB
  0
TABLE
  2
LAYER
  5
BAE
330
0
100
AcDbSymbolTable
 70
3
  0
LAYER
  5
BAF
330
BAE
100
AcDbSymbolTableRecord
100
AcDbLayerTableRecord
  2
0
 70
   0
 62
   7
  6
CONTINUOUS
  0
LAYER
  5
BB0
330
BAE
100
AcDbSymbolTableRecord
100
AcDbLayerTableRecord
  2
none
 70
    0
 62
    7
  6
CONTINUOUS
  0
LAYER
  5
BB1
330
BAE
100
AcDbSymbolTableRecord
100
AcDbLayerTableRecord
  2
Sketch
 70
    0
 62
    7
  6
CONTINUOUS
  0
ENDTAB
  0
TABLE
  2
STYLE
  5
70
330
0
100
AcDbSymbolTable
 70
     2
  0
STYLE
  5
71
330
70
100
AcDbSymbolTableRecord
100
AcDbTextStyleTableRecord
  2
STANDARD
 70
     0
 40
0.0
 41
1.0
 50
0.0
 71
     0
 42
2.5
  3
arial.ttf
  4

  0
STYLE
  5
72
330
70
100
AcDbSymbolTableRecord
100
AcDbTextStyleTableRecord
  2
ANNOTATIVE
 70
     0
 40
0.0
 41
1.0
 50
0.0
 71
     0
 42
2.5
  3
arial.ttf
  4

  0
ENDTAB
  0
TABLE
  2
VIEW
  5
73
330
0
100
AcDbSymbolTable
 70
     0
  0
ENDTAB
  0
TABLE
  2
UCS
  5
74
330
0
100
AcDbSymbolTable
 70
     0
  0
ENDTAB
  0
TABLE
  2
APPID
  5
75
330
0
100
AcDbSymbolTable
 70
     2
  0
APPID
  5
76
330
75
100
AcDbSymbolTableRecord
100
AcDbRegAppTableRecord
  2
ACAD
 70
     0
  0
APPID
  5
77
330
75
100
AcDbSymbolTableRecord
100
AcDbRegAppTableRecord
  2
ACADANNOTATIVE
 70
     0
  0
ENDTAB
  0
TABLE
  2
DIMSTYLE
  5
78
330
0
100
AcDbSymbolTable
 70
     2
  0
DIMSTYLE
105
79
330
78
100
AcDbSymbolTableRecord
100
AcDbDimStyleTableRecord
  2
STANDARD
 70
     0
  3

  4

  5

  6

  7

 40
0.0
 41
2.5
 42
0.625
 43
3.75
 44
1.25
 45
0.0
 46
0.0
 47
0.0
 48
0.0
140
2.5
141
2.5
142
0.0
143
0.03937007874016
144
1.0
145
0.0
146
1.0
147
0.625
 71
     0
 72
     0
 73
     0
 74
     0
 75
     0
 76
     0
 77
     1
 78
     8
170
     0
171
     3
172
     1
173
     0
174
     0
175
     0
176
     0
177
     0
178
     0
270
     2
271
     2
272
     2
273
     2
274
     3
340
71
275
     0
280
     0
281
     0
282
     0
283
     0
284
     8
285
     0
286
     0
287
     3
288
     0
  0
ENDTAB
  0
TABLE
  2
BLOCK_RECORD
  5
A01
330
0
100
AcDbSymbolTable
  70
5
  0
BLOCK_RECORD
  5
A02
330
A01
100
AcDbSymbolTableRecord
100
AcDbBlockTableRecord
  2
*MODEL_SPACE
  0
BLOCK_RECORD
  5
A03
330
A01
100
AcDbSymbolTableRecord
100
AcDbBlockTableRecord
  2
*PAPER_SPACE
  0
ENDTAB
  0
ENDSEC
  0
SECTION
  2
BLOCKS
  0
BLOCK
  5
A04
330
A02
100
AcDbEntity
  8
0
100
AcDbBlockBegin
  2
*MODEL_SPACE
 70
   0
 10
0
 20
0
 30
0
  3
*MODEL_SPACE
  1
 
  0
ENDBLK
  5
A05
330
A02
100
AcDbEntity
  8
0
100
AcDbBlockEnd
  0
BLOCK
  5
A06
330
A03
100
AcDbEntity
 67
1
  8
0
100
AcDbBlockBegin
  2
*PAPER_SPACE
 70
   0
 10
0
 20
0
 30
0
  3
*PAPER_SPACE
  1
 
  0
ENDBLK
  5
A07
330
A03
100
AcDbEntity
 67
    1
  8
0
100
AcDbBlockEnd
  0
ENDSEC
  0
SECTION
  2
ENTITIES
  0
CIRCLE
  5
A08
330
A02
100
AcDbEntity
  8
Sketch
100
AcDbCircle
 10
58.300000000
 20
149.980000000
 30
0.000000000
 40
6.750000000
  0
CIRCLE
  5
A09
330
A02
100
AcDbEntity
  8
Sketch
100
AcDbCircle
 10
89.690000000
 20
152.690000000
 30
0.000000000
 40
6.750000000
  0
CIRCLE
  5
A0A
330
A02
100
AcDbEntity
  8
Sketch
100
AcDbCircle
 10
144.780000000
 20
67.860000000
 30
0.000000000
 40
5.000000000
  0
CIRCLE
  5
A0B
330
A02
100
AcDbEntity
  8
Sketch
100
AcDbCircle
 10
150.770000000
 20
-39.370000000
 30
0.000000000
 40
5.000000000
  0
CIRCLE
  5
A0C
330
A02
100
AcDbEntity
  8
Sketch
100
AcDbCircle
 10
138.660000000
 20
-55.190000000
 30
0.000000000
 40
5.000000000
  0
CIRCLE
  5
A0D
330
A02
100
AcDbEntity
  8
Sketch
100
AcDbCircle
 10
104.470000000
 20
-117.720000000
 30
0.000000000
 40
5.000000000
  0
CIRCLE
  5
A0E
330
A02
100
AcDbEntity
  8
Sketch
100
AcDbCircle
 10
7.640000000
 20
-157.510000000
 30
0.000000000
 40
6.000000000
  0
CIRCLE
  5
A0F
330
A02
100
AcDbEntity
  8
Sketch
100
AcDbCircle
 10
79.010000000
 20
-135.620000000
 30
0.000000000
 40
6.000000000
  0
CIRCLE
  5
A10
330
A02
100
AcDbEntity
  8
Sketch
100
AcDbCircle
 10
-71.940000000
 20
-141.450000000
 30
0.000000000
 40
6.000000000
  0
CIRCLE
  5
A11
330
A02
100
AcDbEntity
  8
Sketch
100
AcDbCircle
 10
-120.020000000
 20
-96.530000000
 30
0.000000000
 40
6.000000000
  0
CIRCLE
  5
A12
330
A02
100
AcDbEntity
  8
Sketch
100
AcDbCircle
 10
-144.000000000
 20
54.000000000
 30
0.000000000
 40
6.000000000
  0
CIRCLE
  5
A13
330
A02
100
AcDbEntity
  8
Sketch
100
AcDbCircle
 10
-98.410000000
 20
150.600000000
 30
0.000000000
 40
6.750000000
  0
CIRCLE
  5
A14
330
A02
100
AcDbEntity
  8
Sketch
100
AcDbCircle
 10
-121.260000000
 20
156.080000000
 30
0.000000000
 40
6.750000000
  0
LINE
  5
A15
330
A02
100
AcDbEntity
  8
Sketch
100
AcDbLine
 10
-142.426392000
 20
-74.500313000
 30
0.000000000
 11
-142.426392000
 21
-74.037537000
 31
0.000000000
  0
LINE
  5
A16
330
A02
100
AcDbEntity
  8
Sketch
100
AcDbLine
 10
-142.426392000
 20
-74.037537000
 30
0.000000000
 11
-142.426392000
 21
-74.500313000
 31
0.000000000
  0
LINE
  5
A17
330
A02
100
AcDbEntity
  8
Sketch
100
AcDbLine
 10
-142.426392000
 20
-74.500313000
 30
0.000000000
 11
-142.426392000
 21
-74.037537000
 31
0.000000000
  0
LINE
  5
A18
330
A02
100
AcDbEntity
  8
Sketch
100
AcDbLine
 10
-142.426392000
 20
-74.037537000
 30
0.000000000
 11
-142.426392000
 21
-57.761200000
 31
0.000000000
  0
LINE
  5
A19
330
A02
100
AcDbEntity
  8
Sketch
100
AcDbLine
 10
-142.426392000
 20
-57.761200000
 30
0.000000000
 11
-151.794647000
 21
-27.031677000
 31
0.000000000
  0
LINE
  5
A1A
330
A02
100
AcDbEntity
  8
Sketch
100
AcDbLine
 10
-151.794647000
 20
-27.031677000
 30
0.000000000
 11
-152.173553000
 21
-26.084446000
 31
0.000000000
  0
LINE
  5
A1B
330
A02
100
AcDbEntity
  8
Sketch
100
AcDbLine
 10
-152.173553000
 20
-26.084446000
 30
0.000000000
 11
-163.940842000
 21
-10.141307000
 31
0.000000000
  0
LINE
  5
A1C
330
A02
100
AcDbEntity
  8
Sketch
100
AcDbLine
 10
-163.940842000
 20
-10.141307000
 30
0.000000000
 11
-164.568085000
 21
-8.189896000
 31
0.000000000
  0
LINE
  5
A1D
330
A02
100
AcDbEntity
  8
Sketch
100
AcDbLine
 10
-164.568085000
 20
-8.189896000
 30
0.000000000
 11
-165.752869000
 21
-7.074804000
 31
0.000000000
  0
LINE
  5
A1E
330
A02
100
AcDbEntity
  8
Sketch
100
AcDbLine
 10
-165.752869000
 20
-7.074804000
 30
0.000000000
 11
-166.798264000
 21
-6.377870000
 31
0.000000000
  0
LINE
  5
A1F
330
A02
100
AcDbEntity
  8
Sketch
100
AcDbLine
 10
-166.798264000
 20
-6.377870000
 30
0.000000000
 11
-168.192139000
 21
-5.750631000
 31
0.000000000
  0
LINE
  5
A20
330
A02
100
AcDbEntity
  8
Sketch
100
AcDbLine
 10
-168.192139000
 20
-5.750631000
 30
0.000000000
 11
-169.585999000
 21
-4.565844000
 31
0.000000000
  0
LINE
  5
A21
330
A02
100
AcDbEntity
  8
Sketch
100
AcDbLine
 10
-169.585999000
 20
-4.565844000
 30
0.000000000
 11
-170.422318000
 21
-3.938606000
 31
0.000000000
  0
LINE
  5
A22
330
A02
100
AcDbEntity
  8
Sketch
100
AcDbLine
 10
-170.422318000
 20
-3.938606000
 30
0.000000000
 11
-171.467712000
 21
-3.102286000
 31
0.000000000
  0
LINE
  5
A23
330
A02
100
AcDbEntity
  8
Sketch
100
AcDbLine
 10
-171.467712000
 20
-3.102286000
 30
0.000000000
 11
-172.234344000
 21
-2.405351000
 31
0.000000000
  0
LINE
  5
A24
330
A02
100
AcDbEntity
  8
Sketch
100
AcDbLine
 10
-172.234344000
 20
-2.405351000
 30
0.000000000
 11
-174.171738000
 21
-0.366850000
 31
0.000000000
  0
LINE
  5
A25
330
A02
100
AcDbEntity
  8
Sketch
100
AcDbLine
 10
-174.171738000
 20
-0.366850000
 30
0.000000000
 11
-174.938370000
 21
2.281496000
 31
0.000000000
  0
LINE
  5
A26
330
A02
100
AcDbEntity
  8
Sketch
100
AcDbLine
 10
-174.938370000
 20
2.281496000
 30
0.000000000
 11
-175.704987000
 21
4.441989000
 31
0.000000000
  0
LINE
  5
A27
330
A02
100
AcDbEntity
  8
Sketch
100
AcDbLine
 10
-175.704987000
 20
4.441989000
 30
0.000000000
 11
-175.704987000
 21
6.811561000
 31
0.000000000
  0
LINE
  5
A28
330
A02
100
AcDbEntity
  8
Sketch
100
AcDbLine
 10
-175.704987000
 20
6.811561000
 30
0.000000000
 11
-175.217148000
 21
8.693280000
 31
0.000000000
  0
LINE
  5
A29
330
A02
100
AcDbEntity
  8
Sketch
100
AcDbLine
 10
-175.217148000
 20
8.693280000
 30
0.000000000
 11
-174.241440000
 21
10.365920000
 31
0.000000000
  0
LINE
  5
A2A
330
A02
100
AcDbEntity
  8
Sketch
100
AcDbLine
 10
-174.241440000
 20
10.365920000
 30
0.000000000
 11
-173.335419000
 21
11.829479000
 31
0.000000000
  0
LINE
  5
A2B
330
A02
100
AcDbEntity
  8
Sketch
100
AcDbLine
 10
-173.335419000
 20
11.829479000
 30
0.000000000
 11
-171.662781000
 21
13.502119000
 31
0.000000000
  0
LINE
  5
A2C
330
A02
100
AcDbEntity
  8
Sketch
100
AcDbLine
 10
-171.662781000
 20
13.502119000
 30
0.000000000
 11
-170.408295000
 21
15.035374000
 31
0.000000000
  0
LINE
  5
A2D
330
A02
100
AcDbEntity
  8
Sketch
100
AcDbLine
 10
-170.408295000
 20
15.035374000
 30
0.000000000
 11
-169.293213000
 21
16.220158000
 31
0.000000000
  0
LINE
  5
A2E
330
A02
100
AcDbEntity
  8
Sketch
100
AcDbLine
 10
-169.293213000
 20
16.220158000
 30
0.000000000
 11
-168.108429000
 21
17.056479000
 31
0.000000000
  0
LINE
  5
A2F
330
A02
100
AcDbEntity
  8
Sketch
100
AcDbLine
 10
-168.108429000
 20
17.056479000
 30
0.000000000
 11
-166.435776000
 21
18.380651000
 31
0.000000000
  0
LINE
  5
A30
330
A02
100
AcDbEntity
  8
Sketch
100
AcDbLine
 10
-166.435776000
 20
18.380651000
 30
0.000000000
 11
-164.972214000
 21
19.844210000
 31
0.000000000
  0
LINE
  5
A31
330
A02
100
AcDbEntity
  8
Sketch
100
AcDbLine
 10
-164.972214000
 20
19.844210000
 30
0.000000000
 11
-163.578354000
 21
21.377464000
 31
0.000000000
  0
LINE
  5
A32
330
A02
100
AcDbEntity
  8
Sketch
100
AcDbLine
 10
-163.578354000
 20
21.377464000
 30
0.000000000
 11
-162.951111000
 21
22.074396000
 31
0.000000000
  0
LINE
  5
A33
330
A02
100
AcDbEntity
  8
Sketch
100
AcDbLine
 10
-162.951111000
 20
22.074396000
 30
0.000000000
 11
-163.587296000
 21
29.995720000
 31
0.000000000
  0
LINE
  5
A34
330
A02
100
AcDbEntity
  8
Sketch
100
AcDbLine
 10
-163.587296000
 20
29.995720000
 30
0.000000000
 11
-164.700882000
 21
35.913002000
 31
0.000000000
  0
LINE
  5
A35
330
A02
100
AcDbEntity
  8
Sketch
100
AcDbLine
 10
-164.700882000
 20
35.913002000
 30
0.000000000
 11
-163.679398000
 21
39.573318000
 31
0.000000000
  0
LINE
  5
A36
330
A02
100
AcDbEntity
  8
Sketch
100
AcDbLine
 10
-163.679398000
 20
39.573318000
 30
0.000000000
 11
-162.572800000
 21
42.467522000
 31
0.000000000
  0
LINE
  5
A37
330
A02
100
AcDbEntity
  8
Sketch
100
AcDbLine
 10
-162.572800000
 20
42.467522000
 30
0.000000000
 11
-161.040573000
 21
44.680737000
 31
0.000000000
  0
LINE
  5
A38
330
A02
100
AcDbEntity
  8
Sketch
100
AcDbLine
 10
-161.040573000
 20
44.680737000
 30
0.000000000
 11
-158.997604000
 21
46.553455000
 31
0.000000000
  0
LINE
  5
A39
330
A02
100
AcDbEntity
  8
Sketch
100
AcDbLine
 10
-158.997604000
 20
46.553455000
 30
0.000000000
 11
-157.635635000
 21
49.362537000
 31
0.000000000
  0
LINE
  5
A3A
330
A02
100
AcDbEntity
  8
Sketch
100
AcDbLine
 10
-157.635635000
 20
49.362537000
 30
0.000000000
 11
-145.311523000
 21
76.807739000
 31
0.000000000
  0
LINE
  5
A3B
330
A02
100
AcDbEntity
  8
Sketch
100
AcDbLine
 10
-145.311523000
 20
76.807739000
 30
0.000000000
 11
-138.812469000
 21
115.317291000
 31
0.000000000
  0
LINE
  5
A3C
330
A02
100
AcDbEntity
  8
Sketch
100
AcDbLine
 10
-138.812469000
 20
115.317291000
 30
0.000000000
 11
-132.796326000
 21
158.355835000
 31
0.000000000
  0
LINE
  5
A3D
330
A02
100
AcDbEntity
  8
Sketch
100
AcDbLine
 10
-132.796326000
 20
158.355835000
 30
0.000000000
 11
-132.011047000
 21
161.427460000
 31
0.000000000
  0
LINE
  5
A3E
330
A02
100
AcDbEntity
  8
Sketch
100
AcDbLine
 10
-132.011047000
 20
161.427460000
 30
0.000000000
 11
-130.035614000
 21
164.026718000
 31
0.000000000
  0
LINE
  5
A3F
330
A02
100
AcDbEntity
  8
Sketch
100
AcDbLine
 10
-130.035614000
 20
164.026718000
 30
0.000000000
 11
-128.268112000
 21
165.586273000
 31
0.000000000
  0
LINE
  5
A40
330
A02
100
AcDbEntity
  8
Sketch
100
AcDbLine
 10
-128.268112000
 20
165.586273000
 30
0.000000000
 11
-125.876801000
 21
166.625977000
 31
0.000000000
  0
LINE
  5
A41
330
A02
100
AcDbEntity
  8
Sketch
100
AcDbLine
 10
-125.876801000
 20
166.625977000
 30
0.000000000
 11
-123.797401000
 21
167.457733000
 31
0.000000000
  0
LINE
  5
A42
330
A02
100
AcDbEntity
  8
Sketch
100
AcDbLine
 10
-123.797401000
 20
167.457733000
 30
0.000000000
 11
-122.029900000
 21
167.457733000
 31
0.000000000
  0
LINE
  5
A43
330
A02
100
AcDbEntity
  8
Sketch
100
AcDbLine
 10
-122.029900000
 20
167.457733000
 30
0.000000000
 11
-95.309555000
 21
163.610840000
 31
0.000000000
  0
LINE
  5
A44
330
A02
100
AcDbEntity
  8
Sketch
100
AcDbLine
 10
-95.309555000
 20
163.610840000
 30
0.000000000
 11
-92.918236000
 21
163.818787000
 31
0.000000000
  0
LINE
  5
A45
330
A02
100
AcDbEntity
  8
Sketch
100
AcDbLine
 10
-92.918236000
 20
163.818787000
 30
0.000000000
 11
-92.190445000
 21
164.650543000
 31
0.000000000
  0
LINE
  5
A46
330
A02
100
AcDbEntity
  8
Sketch
100
AcDbLine
 10
-92.190445000
 20
164.650543000
 30
0.000000000
 11
-91.670593000
 21
166.625977000
 31
0.000000000
  0
LINE
  5
A47
330
A02
100
AcDbEntity
  8
Sketch
100
AcDbLine
 10
-91.670593000
 20
166.625977000
 30
0.000000000
 11
-90.422951000
 21
169.121262000
 31
0.000000000
  0
LINE
  5
A48
330
A02
100
AcDbEntity
  8
Sketch
100
AcDbLine
 10
-90.422951000
 20
169.121262000
 30
0.000000000
 11
-89.383247000
 21
172.136398000
 31
0.000000000
  0
LINE
  5
A49
330
A02
100
AcDbEntity
  8
Sketch
100
AcDbLine
 10
-89.383247000
 20
172.136398000
 30
0.000000000
 11
-87.615753000
 21
174.111832000
 31
0.000000000
  0
LINE
  5
A4A
330
A02
100
AcDbEntity
  8
Sketch
100
AcDbLine
 10
-87.615753000
 20
174.111832000
 30
0.000000000
 11
-86.160172000
 21
175.255508000
 31
0.000000000
  0
LINE
  5
A4B
330
A02
100
AcDbEntity
  8
Sketch
100
AcDbLine
 10
-86.160172000
 20
175.255508000
 30
0.000000000
 11
-83.768860000
 21
176.607117000
 31
0.000000000
  0
LINE
  5
A4C
330
A02
100
AcDbEntity
  8
Sketch
100
AcDbLine
 10
-83.768860000
 20
176.607117000
 30
0.000000000
 11
-81.377541000
 21
177.646820000
 31
0.000000000
  0
LINE
  5
A4D
330
A02
100
AcDbEntity
  8
Sketch
100
AcDbLine
 10
-81.377541000
 20
177.646820000
 30
0.000000000
 11
-78.570343000
 21
179.102402000
 31
0.000000000
  0
LINE
  5
A4E
330
A02
100
AcDbEntity
  8
Sketch
100
AcDbLine
 10
-78.570343000
 20
179.102402000
 30
0.000000000
 11
-75.763145000
 21
181.077835000
 31
0.000000000
  0
LINE
  5
A4F
330
A02
100
AcDbEntity
  8
Sketch
100
AcDbLine
 10
-75.763145000
 20
181.077835000
 30
0.000000000
 11
-74.827415000
 21
181.597687000
 31
0.000000000
  0
LINE
  5
A50
330
A02
100
AcDbEntity
  8
Sketch
100
AcDbLine
 10
-74.827415000
 20
181.597687000
 30
0.000000000
 11
-73.344444000
 21
182.713455000
 31
0.000000000
  0
LINE
  5
A51
330
A02
100
AcDbEntity
  8
Sketch
100
AcDbLine
 10
-73.344444000
 20
182.713455000
 30
0.000000000
 11
-71.811920000
 21
183.357147000
 31
0.000000000
  0
LINE
  5
A52
330
A02
100
AcDbEntity
  8
Sketch
100
AcDbLine
 10
-71.811920000
 20
183.357147000
 30
0.000000000
 11
25.602835000
 21
187.984924000
 31
0.000000000
  0
LINE
  5
A53
330
A02
100
AcDbEntity
  8
Sketch
100
AcDbLine
 10
25.602835000
 20
187.984924000
 30
0.000000000
 11
33.238674000
 21
187.522141000
 31
0.000000000
  0
LINE
  5
A54
330
A02
100
AcDbEntity
  8
Sketch
100
AcDbLine
 10
33.238674000
 20
187.522141000
 30
0.000000000
 11
39.486179000
 21
185.902420000
 31
0.000000000
  0
LINE
  5
A55
330
A02
100
AcDbEntity
  8
Sketch
100
AcDbLine
 10
39.486179000
 20
185.902420000
 30
0.000000000
 11
45.965065000
 21
183.357147000
 31
0.000000000
  0
LINE
  5
A56
330
A02
100
AcDbEntity
  8
Sketch
100
AcDbLine
 10
45.965065000
 20
183.357147000
 30
0.000000000
 11
50.361465000
 21
180.811874000
 31
0.000000000
  0
LINE
  5
A57
330
A02
100
AcDbEntity
  8
Sketch
100
AcDbLine
 10
50.361465000
 20
180.811874000
 30
0.000000000
 11
53.369518000
 21
181.043259000
 31
0.000000000
  0
LINE
  5
A58
330
A02
100
AcDbEntity
  8
Sketch
100
AcDbLine
 10
53.369518000
 20
181.043259000
 30
0.000000000
 11
58.691463000
 21
179.886307000
 31
0.000000000
  0
LINE
  5
A59
330
A02
100
AcDbEntity
  8
Sketch
100
AcDbLine
 10
58.691463000
 20
179.886307000
 30
0.000000000
 11
61.663391000
 21
178.629761000
 31
0.000000000
  0
LINE
  5
A5A
330
A02
100
AcDbEntity
  8
Sketch
100
AcDbLine
 10
61.663391000
 20
178.629761000
 30
0.000000000
 11
62.807053000
 21
176.238449000
 31
0.000000000
  0
LINE
  5
A5B
330
A02
100
AcDbEntity
  8
Sketch
100
AcDbLine
 10
62.807053000
 20
176.238449000
 30
0.000000000
 11
63.430874000
 21
174.055084000
 31
0.000000000
  0
LINE
  5
A5C
330
A02
100
AcDbEntity
  8
Sketch
100
AcDbLine
 10
63.430874000
 20
174.055084000
 30
0.000000000
 11
63.742786000
 21
172.495544000
 31
0.000000000
  0
LINE
  5
A5D
330
A02
100
AcDbEntity
  8
Sketch
100
AcDbLine
 10
63.742786000
 20
172.495544000
 30
0.000000000
 11
63.846752000
 21
169.688354000
 31
0.000000000
  0
LINE
  5
A5E
330
A02
100
AcDbEntity
  8
Sketch
100
AcDbLine
 10
63.846752000
 20
169.688354000
 30
0.000000000
 11
63.638817000
 21
167.608963000
 31
0.000000000
  0
LINE
  5
A5F
330
A02
100
AcDbEntity
  8
Sketch
100
AcDbLine
 10
63.638817000
 20
167.608963000
 30
0.000000000
 11
63.846752000
 21
165.217651000
 31
0.000000000
  0
LINE
  5
A60
330
A02
100
AcDbEntity
  8
Sketch
100
AcDbLine
 10
63.846752000
 20
165.217651000
 30
0.000000000
 11
64.262634000
 21
163.658112000
 31
0.000000000
  0
LINE
  5
A61
330
A02
100
AcDbEntity
  8
Sketch
100
AcDbLine
 10
64.262634000
 20
163.658112000
 30
0.000000000
 11
65.094398000
 21
162.722382000
 31
0.000000000
  0
LINE
  5
A62
330
A02
100
AcDbEntity
  8
Sketch
100
AcDbLine
 10
65.094398000
 20
162.722382000
 30
0.000000000
 11
67.381737000
 21
161.370773000
 31
0.000000000
  0
LINE
  5
A63
330
A02
100
AcDbEntity
  8
Sketch
100
AcDbLine
 10
67.381737000
 20
161.370773000
 30
0.000000000
 11
69.045242000
 21
160.850922000
 31
0.000000000
  0
LINE
  5
A64
330
A02
100
AcDbEntity
  8
Sketch
100
AcDbLine
 10
69.045242000
 20
160.850922000
 30
0.000000000
 11
69.980972000
 21
159.603287000
 31
0.000000000
  0
LINE
  5
A65
330
A02
100
AcDbEntity
  8
Sketch
100
AcDbLine
 10
69.980972000
 20
159.603287000
 30
0.000000000
 11
71.332581000
 21
158.771530000
 31
0.000000000
  0
LINE
  5
A66
330
A02
100
AcDbEntity
  8
Sketch
100
AcDbLine
 10
71.332581000
 20
158.771530000
 30
0.000000000
 11
72.684189000
 21
158.147705000
 31
0.000000000
  0
LINE
  5
A67
330
A02
100
AcDbEntity
  8
Sketch
100
AcDbLine
 10
72.684189000
 20
158.147705000
 30
0.000000000
 11
74.763580000
 21
157.211975000
 31
0.000000000
  0
LINE
  5
A68
330
A02
100
AcDbEntity
  8
Sketch
100
AcDbLine
 10
74.763580000
 20
157.211975000
 30
0.000000000
 11
76.739006000
 21
156.900070000
 31
0.000000000
  0
LINE
  5
A69
330
A02
100
AcDbEntity
  8
Sketch
100
AcDbLine
 10
76.739006000
 20
156.900070000
 30
0.000000000
 11
78.506493000
 21
156.900070000
 31
0.000000000
  0
LINE
  5
A6A
330
A02
100
AcDbEntity
  8
Sketch
100
AcDbLine
 10
78.506493000
 20
156.900070000
 30
0.000000000
 11
80.323837000
 21
157.598190000
 31
0.000000000
  0
LINE
  5
A6B
330
A02
100
AcDbEntity
  8
Sketch
100
AcDbLine
 10
80.323837000
 20
157.598190000
 30
0.000000000
 11
81.941185000
 21
158.875031000
 31
0.000000000
  0
LINE
  5
A6C
330
A02
100
AcDbEntity
  8
Sketch
100
AcDbLine
 10
81.941185000
 20
158.875031000
 30
0.000000000
 11
83.643654000
 21
160.151886000
 31
0.000000000
  0
LINE
  5
A6D
330
A02
100
AcDbEntity
  8
Sketch
100
AcDbLine
 10
83.643654000
 20
160.151886000
 30
0.000000000
 11
84.920494000
 21
161.513855000
 31
0.000000000
  0
LINE
  5
A6E
330
A02
100
AcDbEntity
  8
Sketch
100
AcDbLine
 10
84.920494000
 20
161.513855000
 30
0.000000000
 11
86.708084000
 21
162.620453000
 31
0.000000000
  0
LINE
  5
A6F
330
A02
100
AcDbEntity
  8
Sketch
100
AcDbLine
 10
86.708084000
 20
162.620453000
 30
0.000000000
 11
88.495674000
 21
163.556808000
 31
0.000000000
  0
LINE
  5
A70
330
A02
100
AcDbEntity
  8
Sketch
100
AcDbLine
 10
88.495674000
 20
163.556808000
 30
0.000000000
 11
90.368385000
 21
164.237808000
 31
0.000000000
  0
LINE
  5
A71
330
A02
100
AcDbEntity
  8
Sketch
100
AcDbLine
 10
90.368385000
 20
164.237808000
 30
0.000000000
 11
92.581589000
 21
164.493164000
 31
0.000000000
  0
LINE
  5
A72
330
A02
100
AcDbEntity
  8
Sketch
100
AcDbLine
 10
92.581589000
 20
164.493164000
 30
0.000000000
 11
94.965042000
 21
164.408051000
 31
0.000000000
  0
LINE
  5
A73
330
A02
100
AcDbEntity
  8
Sketch
100
AcDbLine
 10
94.965042000
 20
164.408051000
 30
0.000000000
 11
97.178253000
 21
163.982437000
 31
0.000000000
  0
LINE
  5
A74
330
A02
100
AcDbEntity
  8
Sketch
100
AcDbLine
 10
97.178253000
 20
163.982437000
 30
0.000000000
 11
98.965828000
 21
162.790710000
 31
0.000000000
  0
LINE
  5
A75
330
A02
100
AcDbEntity
  8
Sketch
100
AcDbLine
 10
98.965828000
 20
162.790710000
 30
0.000000000
 11
100.583176000
 21
161.684097000
 31
0.000000000
  0
LINE
  5
A76
330
A02
100
AcDbEntity
  8
Sketch
100
AcDbLine
 10
100.583176000
 20
161.684097000
 30
0.000000000
 11
101.774902000
 21
160.151886000
 31
0.000000000
  0
LINE
  5
A77
330
A02
100
AcDbEntity
  8
Sketch
100
AcDbLine
 10
101.774902000
 20
160.151886000
 30
0.000000000
 11
102.796379000
 21
158.534546000
 31
0.000000000
  0
LINE
  5
A78
330
A02
100
AcDbEntity
  8
Sketch
100
AcDbLine
 10
102.796379000
 20
158.534546000
 30
0.000000000
 11
103.902985000
 21
156.917206000
 31
0.000000000
  0
LINE
  5
A79
330
A02
100
AcDbEntity
  8
Sketch
100
AcDbLine
 10
103.902985000
 20
156.917206000
 30
0.000000000
 11
104.328598000
 21
155.214737000
 31
0.000000000
  0
LINE
  5
A7A
330
A02
100
AcDbEntity
  8
Sketch
100
AcDbLine
 10
104.328598000
 20
155.214737000
 30
0.000000000
 11
104.583969000
 21
153.342026000
 31
0.000000000
  0
LINE
  5
A7B
330
A02
100
AcDbEntity
  8
Sketch
100
AcDbLine
 10
104.583969000
 20
153.342026000
 30
0.000000000
 11
104.669090000
 21
151.213943000
 31
0.000000000
  0
LINE
  5
A7C
330
A02
100
AcDbEntity
  8
Sketch
100
AcDbLine
 10
104.669090000
 20
151.213943000
 30
0.000000000
 11
104.158348000
 21
143.637970000
 31
0.000000000
  0
LINE
  5
A7D
330
A02
100
AcDbEntity
  8
Sketch
100
AcDbLine
 10
104.158348000
 20
143.637970000
 30
0.000000000
 11
103.216728000
 21
138.419113000
 31
0.000000000
  0
LINE
  5
A7E
330
A02
100
AcDbEntity
  8
Sketch
100
AcDbLine
 10
103.216728000
 20
138.419113000
 30
0.000000000
 11
103.007652000
 21
136.049545000
 31
0.000000000
  0
LINE
  5
A7F
330
A02
100
AcDbEntity
  8
Sketch
100
AcDbLine
 10
103.007652000
 20
136.049545000
 30
0.000000000
 11
103.007652000
 21
133.679977000
 31
0.000000000
  0
LINE
  5
A80
330
A02
100
AcDbEntity
  8
Sketch
100
AcDbLine
 10
103.007652000
 20
133.679977000
 30
0.000000000
 11
103.007652000
 21
131.240723000
 31
0.000000000
  0
LINE
  5
A81
330
A02
100
AcDbEntity
  8
Sketch
100
AcDbLine
 10
103.007652000
 20
131.240723000
 30
0.000000000
 11
103.007652000
 21
128.940857000
 31
0.000000000
  0
LINE
  5
A82
330
A02
100
AcDbEntity
  8
Sketch
100
AcDbLine
 10
103.007652000
 20
128.940857000
 30
0.000000000
 11
103.286423000
 21
126.989449000
 31
0.000000000
  0
LINE
  5
A83
330
A02
100
AcDbEntity
  8
Sketch
100
AcDbLine
 10
103.286423000
 20
126.989449000
 30
0.000000000
 11
103.913658000
 21
125.177429000
 31
0.000000000
  0
LINE
  5
A84
330
A02
100
AcDbEntity
  8
Sketch
100
AcDbLine
 10
103.913658000
 20
125.177429000
 30
0.000000000
 11
105.795372000
 21
123.156326000
 31
0.000000000
  0
LINE
  5
A85
330
A02
100
AcDbEntity
  8
Sketch
100
AcDbLine
 10
105.795372000
 20
123.156326000
 30
0.000000000
 11
107.537697000
 21
121.344307000
 31
0.000000000
  0
LINE
  5
A86
330
A02
100
AcDbEntity
  8
Sketch
100
AcDbLine
 10
107.537697000
 20
121.344307000
 30
0.000000000
 11
109.628487000
 21
119.601982000
 31
0.000000000
  0
LINE
  5
A87
330
A02
100
AcDbEntity
  8
Sketch
100
AcDbLine
 10
109.628487000
 20
119.601982000
 30
0.000000000
 11
112.137436000
 21
117.650581000
 31
0.000000000
  0
LINE
  5
A88
330
A02
100
AcDbEntity
  8
Sketch
100
AcDbLine
 10
112.137436000
 20
117.650581000
 30
0.000000000
 11
122.305191000
 21
109.116905000
 31
0.000000000
  0
LINE
  5
A89
330
A02
100
AcDbEntity
  8
Sketch
100
AcDbLine
 10
122.305191000
 20
109.116905000
 30
0.000000000
 11
125.717499000
 21
104.773972000
 31
0.000000000
  0
LINE
  5
A8A
330
A02
100
AcDbEntity
  8
Sketch
100
AcDbLine
 10
125.717499000
 20
104.773972000
 30
0.000000000
 11
127.423645000
 21
100.120827000
 31
0.000000000
  0
LINE
  5
A8B
330
A02
100
AcDbEntity
  8
Sketch
100
AcDbLine
 10
127.423645000
 20
100.120827000
 30
0.000000000
 11
131.301270000
 21
95.002373000
 31
0.000000000
  0
LINE
  5
A8C
330
A02
100
AcDbEntity
  8
Sketch
100
AcDbLine
 10
131.301270000
 20
95.002373000
 30
0.000000000
 11
136.264618000
 21
87.557343000
 31
0.000000000
  0
LINE
  5
A8D
330
A02
100
AcDbEntity
  8
Sketch
100
AcDbLine
 10
136.264618000
 20
87.557343000
 30
0.000000000
 11
140.142227000
 21
81.508263000
 31
0.000000000
  0
LINE
  5
A8E
330
A02
100
AcDbEntity
  8
Sketch
100
AcDbLine
 10
140.142227000
 20
81.508263000
 30
0.000000000
 11
142.158600000
 21
78.871483000
 31
0.000000000
  0
LINE
  5
A8F
330
A02
100
AcDbEntity
  8
Sketch
100
AcDbLine
 10
142.158600000
 20
78.871483000
 30
0.000000000
 11
144.811966000
 21
78.159187000
 31
0.000000000
  0
LINE
  5
A90
330
A02
100
AcDbEntity
  8
Sketch
100
AcDbLine
 10
144.811966000
 20
78.159187000
 30
0.000000000
 11
147.181534000
 21
77.880417000
 31
0.000000000
  0
LINE
  5
A91
330
A02
100
AcDbEntity
  8
Sketch
100
AcDbLine
 10
147.181534000
 20
77.880417000
 30
0.000000000
 11
149.342010000
 21
77.531952000
 31
0.000000000
  0
LINE
  5
A92
330
A02
100
AcDbEntity
  8
Sketch
100
AcDbLine
 10
149.342010000
 20
77.531952000
 30
0.000000000
 11
151.363113000
 21
76.974403000
 31
0.000000000
  0
LINE
  5
A93
330
A02
100
AcDbEntity
  8
Sketch
100
AcDbLine
 10
151.363113000
 20
76.974403000
 30
0.000000000
 11
152.756973000
 21
76.416855000
 31
0.000000000
  0
LINE
  5
A94
330
A02
100
AcDbEntity
  8
Sketch
100
AcDbLine
 10
152.756973000
 20
76.416855000
 30
0.000000000
 11
153.941742000
 21
75.789619000
 31
0.000000000
  0
LINE
  5
A95
330
A02
100
AcDbEntity
  8
Sketch
100
AcDbLine
 10
153.941742000
 20
75.789619000
 30
0.000000000
 11
155.265915000
 21
74.883614000
 31
0.000000000
  0
LINE
  5
A96
330
A02
100
AcDbEntity
  8
Sketch
100
AcDbLine
 10
155.265915000
 20
74.883614000
 30
0.000000000
 11
156.241623000
 21
73.907906000
 31
0.000000000
  0
LINE
  5
A97
330
A02
100
AcDbEntity
  8
Sketch
100
AcDbLine
 10
156.241623000
 20
73.907906000
 30
0.000000000
 11
157.635483000
 21
72.514046000
 31
0.000000000
  0
LINE
  5
A98
330
A02
100
AcDbEntity
  8
Sketch
100
AcDbLine
 10
157.635483000
 20
72.514046000
 30
0.000000000
 11
158.889954000
 21
70.423256000
 31
0.000000000
  0
LINE
  5
A99
330
A02
100
AcDbEntity
  8
Sketch
100
AcDbLine
 10
158.889954000
 20
70.423256000
 30
0.000000000
 11
159.795975000
 21
68.053696000
 31
0.000000000
  0
LINE
  5
A9A
330
A02
100
AcDbEntity
  8
Sketch
100
AcDbLine
 10
159.795975000
 20
68.053696000
 30
0.000000000
 11
160.005051000
 21
65.684128000
 31
0.000000000
  0
LINE
  5
A9B
330
A02
100
AcDbEntity
  8
Sketch
100
AcDbLine
 10
160.005051000
 20
65.684128000
 30
0.000000000
 11
160.144440000
 21
63.941803000
 31
0.000000000
  0
LINE
  5
A9C
330
A02
100
AcDbEntity
  8
Sketch
100
AcDbLine
 10
160.144440000
 20
63.941803000
 30
0.000000000
 11
160.005051000
 21
62.757023000
 31
0.000000000
  0
LINE
  5
A9D
330
A02
100
AcDbEntity
  8
Sketch
100
AcDbLine
 10
160.005051000
 20
62.757023000
 30
0.000000000
 11
159.656586000
 21
60.875309000
 31
0.000000000
  0
LINE
  5
A9E
330
A02
100
AcDbEntity
  8
Sketch
100
AcDbLine
 10
159.656586000
 20
60.875309000
 30
0.000000000
 11
159.547409000
 21
59.359379000
 31
0.000000000
  0
LINE
  5
A9F
330
A02
100
AcDbEntity
  8
Sketch
100
AcDbLine
 10
159.547409000
 20
59.359379000
 30
0.000000000
 11
159.547409000
 21
57.686749000
 31
0.000000000
  0
LINE
  5
AA0
330
A02
100
AcDbEntity
  8
Sketch
100
AcDbLine
 10
159.547409000
 20
57.686749000
 30
0.000000000
 11
159.547409000
 21
56.501965000
 31
0.000000000
  0
LINE
  5
AA1
330
A02
100
AcDbEntity
  8
Sketch
100
AcDbLine
 10
159.547409000
 20
56.501965000
 30
0.000000000
 11
160.244339000
 21
55.038410000
 31
0.000000000
  0
LINE
  5
AA2
330
A02
100
AcDbEntity
  8
Sketch
100
AcDbLine
 10
160.244339000
 20
55.038410000
 30
0.000000000
 11
161.847275000
 21
51.762836000
 31
0.000000000
  0
LINE
  5
AA3
330
A02
100
AcDbEntity
  8
Sketch
100
AcDbLine
 10
161.847275000
 20
51.762836000
 30
0.000000000
 11
162.613907000
 21
50.578056000
 31
0.000000000
  0
LINE
  5
AA4
330
A02
100
AcDbEntity
  8
Sketch
100
AcDbLine
 10
162.613907000
 20
50.578056000
 30
0.000000000
 11
163.519913000
 21
49.532658000
 31
0.000000000
  0
LINE
  5
AA5
330
A02
100
AcDbEntity
  8
Sketch
100
AcDbLine
 10
163.519913000
 20
49.532658000
 30
0.000000000
 11
164.356232000
 21
48.278183000
 31
0.000000000
  0
LINE
  5
AA6
330
A02
100
AcDbEntity
  8
Sketch
100
AcDbLine
 10
164.356232000
 20
48.278183000
 30
0.000000000
 11
165.192535000
 21
47.093399000
 31
0.000000000
  0
LINE
  5
AA7
330
A02
100
AcDbEntity
  8
Sketch
100
AcDbLine
 10
165.192535000
 20
47.093399000
 30
0.000000000
 11
165.959167000
 21
46.187389000
 31
0.000000000
  0
LINE
  5
AA8
330
A02
100
AcDbEntity
  8
Sketch
100
AcDbLine
 10
165.959167000
 20
46.187389000
 30
0.000000000
 11
167.283340000
 21
44.445065000
 31
0.000000000
  0
LINE
  5
AA9
330
A02
100
AcDbEntity
  8
Sketch
100
AcDbLine
 10
167.283340000
 20
44.445065000
 30
0.000000000
 11
169.025665000
 21
42.423965000
 31
0.000000000
  0
LINE
  5
AAA
330
A02
100
AcDbEntity
  8
Sketch
100
AcDbLine
 10
169.025665000
 20
42.423965000
 30
0.000000000
 11
169.931671000
 21
40.681637000
 31
0.000000000
  0
LINE
  5
AAB
330
A02
100
AcDbEntity
  8
Sketch
100
AcDbLine
 10
169.931671000
 20
40.681637000
 30
0.000000000
 11
171.116455000
 21
39.775627000
 31
0.000000000
  0
LINE
  5
AAC
330
A02
100
AcDbEntity
  8
Sketch
100
AcDbLine
 10
171.116455000
 20
39.775627000
 30
0.000000000
 11
173.416321000
 21
38.869617000
 31
0.000000000
  0
LINE
  5
AAD
330
A02
100
AcDbEntity
  8
Sketch
100
AcDbLine
 10
173.416321000
 20
38.869617000
 30
0.000000000
 11
175.019272000
 21
38.381767000
 31
0.000000000
  0
LINE
  5
AAE
330
A02
100
AcDbEntity
  8
Sketch
100
AcDbLine
 10
175.019272000
 20
38.381767000
 30
0.000000000
 11
176.622208000
 21
37.893913000
 31
0.000000000
  0
LINE
  5
AAF
330
A02
100
AcDbEntity
  8
Sketch
100
AcDbLine
 10
176.622208000
 20
37.893913000
 30
0.000000000
 11
178.434219000
 21
37.615143000
 31
0.000000000
  0
LINE
  5
AB0
330
A02
100
AcDbEntity
  8
Sketch
100
AcDbLine
 10
178.434219000
 20
37.615143000
 30
0.000000000
 11
180.385635000
 21
37.057598000
 31
0.000000000
  0
LINE
  5
AB1
330
A02
100
AcDbEntity
  8
Sketch
100
AcDbLine
 10
180.385635000
 20
37.057598000
 30
0.000000000
 11
182.337036000
 21
36.500053000
 31
0.000000000
  0
LINE
  5
AB2
330
A02
100
AcDbEntity
  8
Sketch
100
AcDbLine
 10
182.337036000
 20
36.500053000
 30
0.000000000
 11
184.149063000
 21
36.012203000
 31
0.000000000
  0
LINE
  5
AB3
330
A02
100
AcDbEntity
  8
Sketch
100
AcDbLine
 10
184.149063000
 20
36.012203000
 30
0.000000000
 11
185.891388000
 21
35.315273000
 31
0.000000000
  0
LINE
  5
AB4
330
A02
100
AcDbEntity
  8
Sketch
100
AcDbLine
 10
185.891388000
 20
35.315273000
 30
0.000000000
 11
186.658005000
 21
34.200184000
 31
0.000000000
  0
LINE
  5
AB5
330
A02
100
AcDbEntity
  8
Sketch
100
AcDbLine
 10
186.658005000
 20
34.200184000
 30
0.000000000
 11
187.267990000
 21
33.017929000
 31
0.000000000
  0
LINE
  5
AB6
330
A02
100
AcDbEntity
  8
Sketch
100
AcDbLine
 10
187.267990000
 20
33.017929000
 30
0.000000000
 11
188.155609000
 21
31.429565000
 31
0.000000000
  0
LINE
  5
AB7
330
A02
100
AcDbEntity
  8
Sketch
100
AcDbLine
 10
188.155609000
 20
31.429565000
 30
0.000000000
 11
188.482620000
 21
29.280598000
 31
0.000000000
  0
LINE
  5
AB8
330
A02
100
AcDbEntity
  8
Sketch
100
AcDbLine
 10
188.482620000
 20
29.280598000
 30
0.000000000
 11
188.482620000
 21
27.598797000
 31
0.000000000
  0
LINE
  5
AB9
330
A02
100
AcDbEntity
  8
Sketch
100
AcDbLine
 10
188.482620000
 20
27.598797000
 30
0.000000000
 11
188.342468000
 21
26.010431000
 31
0.000000000
  0
LINE
  5
ABA
330
A02
100
AcDbEntity
  8
Sketch
100
AcDbLine
 10
188.342468000
 20
26.010431000
 30
0.000000000
 11
187.968735000
 21
24.749081000
 31
0.000000000
  0
LINE
  5
ABB
330
A02
100
AcDbEntity
  8
Sketch
100
AcDbLine
 10
187.968735000
 20
24.749081000
 30
0.000000000
 11
187.454849000
 21
23.441013000
 31
0.000000000
  0
LINE
  5
ABC
330
A02
100
AcDbEntity
  8
Sketch
100
AcDbLine
 10
187.454849000
 20
23.441013000
 30
0.000000000
 11
186.754105000
 21
21.992798000
 31
0.000000000
  0
LINE
  5
ABD
330
A02
100
AcDbEntity
  8
Sketch
100
AcDbLine
 10
186.754105000
 20
21.992798000
 30
0.000000000
 11
187.410721000
 21
18.986626000
 31
0.000000000
  0
LINE
  5
ABE
330
A02
100
AcDbEntity
  8
Sketch
100
AcDbLine
 10
187.410721000
 20
18.986626000
 30
0.000000000
 11
187.793213000
 21
17.380194000
 31
0.000000000
  0
LINE
  5
ABF
330
A02
100
AcDbEntity
  8
Sketch
100
AcDbLine
 10
187.793213000
 20
17.380194000
 30
0.000000000
 11
188.022705000
 21
16.117996000
 31
0.000000000
  0
LINE
  5
AC0
330
A02
100
AcDbEntity
  8
Sketch
100
AcDbLine
 10
188.022705000
 20
16.117996000
 30
0.000000000
 11
188.596420000
 21
14.894049000
 31
0.000000000
  0
LINE
  5
AC1
330
A02
100
AcDbEntity
  8
Sketch
100
AcDbLine
 10
188.596420000
 20
14.894049000
 30
0.000000000
 11
189.170151000
 21
13.784846000
 31
0.000000000
  0
LINE
  5
AC2
330
A02
100
AcDbEntity
  8
Sketch
100
AcDbLine
 10
189.170151000
 20
13.784846000
 30
0.000000000
 11
189.820374000
 21
12.675643000
 31
0.000000000
  0
LINE
  5
AC3
330
A02
100
AcDbEntity
  8
Sketch
100
AcDbLine
 10
189.820374000
 20
12.675643000
 30
0.000000000
 11
190.585342000
 21
11.987173000
 31
0.000000000
  0
LINE
  5
AC4
330
A02
100
AcDbEntity
  8
Sketch
100
AcDbLine
 10
190.585342000
 20
11.987173000
 30
0.000000000
 11
191.541550000
 21
11.451695000
 31
0.000000000
  0
LINE
  5
AC5
330
A02
100
AcDbEntity
  8
Sketch
100
AcDbLine
 10
191.541550000
 20
11.451695000
 30
0.000000000
 11
192.230026000
 21
10.992716000
 31
0.000000000
  0
LINE
  5
AC6
330
A02
100
AcDbEntity
  8
Sketch
100
AcDbLine
 10
192.230026000
 20
10.992716000
 30
0.000000000
 11
192.765503000
 21
10.342492000
 31
0.000000000
  0
LINE
  5
AC7
330
A02
100
AcDbEntity
  8
Sketch
100
AcDbLine
 10
192.765503000
 20
10.342492000
 30
0.000000000
 11
192.880249000
 21
9.042048000
 31
0.000000000
  0
LINE
  5
AC8
330
A02
100
AcDbEntity
  8
Sketch
100
AcDbLine
 10
192.880249000
 20
9.042048000
 30
0.000000000
 11
192.765503000
 21
8.085838000
 31
0.000000000
  0
LINE
  5
AC9
330
A02
100
AcDbEntity
  8
Sketch
100
AcDbLine
 10
192.765503000
 20
8.085838000
 30
0.000000000
 11
192.459518000
 21
6.594152000
 31
0.000000000
  0
LINE
  5
ACA
330
A02
100
AcDbEntity
  8
Sketch
100
AcDbLine
 10
192.459518000
 20
6.594152000
 30
0.000000000
 11
190.649643000
 21
-13.201038000
 31
0.000000000
  0
LINE
  5
ACB
330
A02
100
AcDbEntity
  8
Sketch
100
AcDbLine
 10
190.649643000
 20
-13.201038000
 30
0.000000000
 11
190.332932000
 21
-14.957614000
 31
0.000000000
  0
LINE
  5
ACC
330
A02
100
AcDbEntity
  8
Sketch
100
AcDbLine
 10
190.332932000
 20
-14.957614000
 30
0.000000000
 11
189.268219000
 21
-15.302080000
 31
0.000000000
  0
LINE
  5
ACD
330
A02
100
AcDbEntity
  8
Sketch
100
AcDbLine
 10
189.268219000
 20
-15.302080000
 30
0.000000000
 11
187.733780000
 21
-15.677861000
 31
0.000000000
  0
LINE
  5
ACE
330
A02
100
AcDbEntity
  8
Sketch
100
AcDbLine
 10
187.733780000
 20
-15.677861000
 30
0.000000000
 11
186.168015000
 21
-16.554686000
 31
0.000000000
  0
LINE
  5
ACF
330
A02
100
AcDbEntity
  8
Sketch
100
AcDbLine
 10
186.168015000
 20
-16.554686000
 30
0.000000000
 11
184.727524000
 21
-17.869921000
 31
0.000000000
  0
LINE
  5
AD0
330
A02
100
AcDbEntity
  8
Sketch
100
AcDbLine
 10
184.727524000
 20
-17.869921000
 30
0.000000000
 11
183.193085000
 21
-18.934635000
 31
0.000000000
  0
LINE
  5
AD1
330
A02
100
AcDbEntity
  8
Sketch
100
AcDbLine
 10
183.193085000
 20
-18.934635000
 30
0.000000000
 11
181.188919000
 21
-20.249870000
 31
0.000000000
  0
LINE
  5
AD2
330
A02
100
AcDbEntity
  8
Sketch
100
AcDbLine
 10
181.188919000
 20
-20.249870000
 30
0.000000000
 11
174.678589000
 21
-24.571287000
 31
0.000000000
  0
LINE
  5
AD3
330
A02
100
AcDbEntity
  8
Sketch
100
AcDbLine
 10
174.678589000
 20
-24.571287000
 30
0.000000000
 11
171.333328000
 21
-27.080238000
 31
0.000000000
  0
LINE
  5
AD4
330
A02
100
AcDbEntity
  8
Sketch
100
AcDbLine
 10
171.333328000
 20
-27.080238000
 30
0.000000000
 11
169.312225000
 21
-28.543795000
 31
0.000000000
  0
LINE
  5
AD5
330
A02
100
AcDbEntity
  8
Sketch
100
AcDbLine
 10
169.312225000
 20
-28.543795000
 30
0.000000000
 11
168.406219000
 21
-30.007351000
 31
0.000000000
  0
LINE
  5
AD6
330
A02
100
AcDbEntity
  8
Sketch
100
AcDbLine
 10
168.406219000
 20
-30.007351000
 30
0.000000000
 11
167.291122000
 21
-31.192133000
 31
0.000000000
  0
LINE
  5
AD7
330
A02
100
AcDbEntity
  8
Sketch
100
AcDbLine
 10
167.291122000
 20
-31.192133000
 30
0.000000000
 11
167.291122000
 21
-32.864769000
 31
0.000000000
  0
LINE
  5
AD8
330
A02
100
AcDbEntity
  8
Sketch
100
AcDbLine
 10
167.291122000
 20
-32.864769000
 30
0.000000000
 11
166.106339000
 21
-41.924877000
 31
0.000000000
  0
LINE
  5
AD9
330
A02
100
AcDbEntity
  8
Sketch
100
AcDbLine
 10
166.106339000
 20
-41.924877000
 30
0.000000000
 11
165.193710000
 21
-45.289181000
 31
0.000000000
  0
LINE
  5
ADA
330
A02
100
AcDbEntity
  8
Sketch
100
AcDbLine
 10
165.193710000
 20
-45.289181000
 30
0.000000000
 11
165.307831000
 21
-46.658619000
 31
0.000000000
  0
LINE
  5
ADB
330
A02
100
AcDbEntity
  8
Sketch
100
AcDbLine
 10
165.307831000
 20
-46.658619000
 30
0.000000000
 11
165.307831000
 21
-48.313358000
 31
0.000000000
  0
LINE
  5
ADC
330
A02
100
AcDbEntity
  8
Sketch
100
AcDbLine
 10
165.307831000
 20
-48.313358000
 30
0.000000000
 11
165.878433000
 21
-50.310455000
 31
0.000000000
  0
LINE
  5
ADD
330
A02
100
AcDbEntity
  8
Sketch
100
AcDbLine
 10
165.878433000
 20
-50.310455000
 30
0.000000000
 11
166.506088000
 21
-51.451653000
 31
0.000000000
  0
LINE
  5
ADE
330
A02
100
AcDbEntity
  8
Sketch
100
AcDbLine
 10
166.506088000
 20
-51.451653000
 30
0.000000000
 11
166.848450000
 21
-53.049332000
 31
0.000000000
  0
LINE
  5
ADF
330
A02
100
AcDbEntity
  8
Sketch
100
AcDbLine
 10
166.848450000
 20
-53.049332000
 30
0.000000000
 11
167.761414000
 21
-54.133472000
 31
0.000000000
  0
LINE
  5
AE0
330
A02
100
AcDbEntity
  8
Sketch
100
AcDbLine
 10
167.761414000
 20
-54.133472000
 30
0.000000000
 11
168.674377000
 21
-54.932308000
 31
0.000000000
  0
LINE
  5
AE1
330
A02
100
AcDbEntity
  8
Sketch
100
AcDbLine
 10
168.674377000
 20
-54.932308000
 30
0.000000000
 11
169.872635000
 21
-56.016449000
 31
0.000000000
  0
LINE
  5
AE2
330
A02
100
AcDbEntity
  8
Sketch
100
AcDbLine
 10
169.872635000
 20
-56.016449000
 30
0.000000000
 11
170.899704000
 21
-56.587048000
 31
0.000000000
  0
LINE
  5
AE3
330
A02
100
AcDbEntity
  8
Sketch
100
AcDbLine
 10
170.899704000
 20
-56.587048000
 30
0.000000000
 11
172.497391000
 21
-56.758228000
 31
0.000000000
  0
LINE
  5
AE4
330
A02
100
AcDbEntity
  8
Sketch
100
AcDbLine
 10
172.497391000
 20
-56.758228000
 30
0.000000000
 11
173.809769000
 21
-56.929405000
 31
0.000000000
  0
LINE
  5
AE5
330
A02
100
AcDbEntity
  8
Sketch
100
AcDbLine
 10
173.809769000
 20
-56.929405000
 30
0.000000000
 11
175.459076000
 21
-57.045277000
 31
0.000000000
  0
LINE
  5
AE6
330
A02
100
AcDbEntity
  8
Sketch
100
AcDbLine
 10
175.459076000
 20
-57.045277000
 30
0.000000000
 11
178.152176000
 21
-57.452374000
 31
0.000000000
  0
LINE
  5
AE7
330
A02
100
AcDbEntity
  8
Sketch
100
AcDbLine
 10
178.152176000
 20
-57.452374000
 30
0.000000000
 11
179.874512000
 21
-57.452374000
 31
0.000000000
  0
LINE
  5
AE8
330
A02
100
AcDbEntity
  8
Sketch
100
AcDbLine
 10
179.874512000
 20
-57.452374000
 30
0.000000000
 11
181.596848000
 21
-57.608948000
 31
0.000000000
  0
LINE
  5
AE9
330
A02
100
AcDbEntity
  8
Sketch
100
AcDbLine
 10
181.596848000
 20
-57.608948000
 30
0.000000000
 11
182.880768000
 21
-57.953415000
 31
0.000000000
  0
LINE
  5
AEA
330
A02
100
AcDbEntity
  8
Sketch
100
AcDbLine
 10
182.880768000
 20
-57.953415000
 30
0.000000000
 11
183.788910000
 21
-58.329197000
 31
0.000000000
  0
LINE
  5
AEB
330
A02
100
AcDbEntity
  8
Sketch
100
AcDbLine
 10
183.788910000
 20
-58.329197000
 30
0.000000000
 11
184.638733000
 21
-59.117649000
 31
0.000000000
  0
LINE
  5
AEC
330
A02
100
AcDbEntity
  8
Sketch
100
AcDbLine
 10
184.638733000
 20
-59.117649000
 30
0.000000000
 11
184.753479000
 21
-60.341599000
 31
0.000000000
  0
LINE
  5
AED
330
A02
100
AcDbEntity
  8
Sketch
100
AcDbLine
 10
184.753479000
 20
-60.341599000
 30
0.000000000
 11
184.868225000
 21
-61.489052000
 31
0.000000000
  0
LINE
  5
AEE
330
A02
100
AcDbEntity
  8
Sketch
100
AcDbLine
 10
184.868225000
 20
-61.489052000
 30
0.000000000
 11
182.298172000
 21
-80.557655000
 31
0.000000000
  0
LINE
  5
AEF
330
A02
100
AcDbEntity
  8
Sketch
100
AcDbLine
 10
182.298172000
 20
-80.557655000
 30
0.000000000
 11
181.957687000
 21
-82.941116000
 31
0.000000000
  0
LINE
  5
AF0
330
A02
100
AcDbEntity
  8
Sketch
100
AcDbLine
 10
181.957687000
 20
-82.941116000
 30
0.000000000
 11
181.532059000
 21
-83.536980000
 31
0.000000000
  0
LINE
  5
AF1
330
A02
100
AcDbEntity
  8
Sketch
100
AcDbLine
 10
181.532059000
 20
-83.536980000
 30
0.000000000
 11
180.680832000
 21
-84.898956000
 31
0.000000000
  0
LINE
  5
AF2
330
A02
100
AcDbEntity
  8
Sketch
100
AcDbLine
 10
180.680832000
 20
-84.898956000
 30
0.000000000
 11
179.659348000
 21
-85.409691000
 31
0.000000000
  0
LINE
  5
AF3
330
A02
100
AcDbEntity
  8
Sketch
100
AcDbLine
 10
179.659348000
 20
-85.409691000
 30
0.000000000
 11
178.042007000
 21
-85.494820000
 31
0.000000000
  0
LINE
  5
AF4
330
A02
100
AcDbEntity
  8
Sketch
100
AcDbLine
 10
178.042007000
 20
-85.494820000
 30
0.000000000
 11
174.807312000
 21
-85.154320000
 31
0.000000000
  0
LINE
  5
AF5
330
A02
100
AcDbEntity
  8
Sketch
100
AcDbLine
 10
174.807312000
 20
-85.154320000
 30
0.000000000
 11
165.188370000
 21
-84.303085000
 31
0.000000000
  0
LINE
  5
AF6
330
A02
100
AcDbEntity
  8
Sketch
100
AcDbLine
 10
165.188370000
 20
-84.303085000
 30
0.000000000
 11
161.357803000
 21
-83.792351000
 31
0.000000000
  0
LINE
  5
AF7
330
A02
100
AcDbEntity
  8
Sketch
100
AcDbLine
 10
161.357803000
 20
-83.792351000
 30
0.000000000
 11
157.697510000
 21
-83.622101000
 31
0.000000000
  0
LINE
  5
AF8
330
A02
100
AcDbEntity
  8
Sketch
100
AcDbLine
 10
157.697510000
 20
-83.622101000
 30
0.000000000
 11
153.526459000
 21
-83.622101000
 31
0.000000000
  0
LINE
  5
AF9
330
A02
100
AcDbEntity
  8
Sketch
100
AcDbLine
 10
153.526459000
 20
-83.622101000
 30
0.000000000
 11
150.206635000
 21
-83.366730000
 31
0.000000000
  0
LINE
  5
AFA
330
A02
100
AcDbEntity
  8
Sketch
100
AcDbLine
 10
150.206635000
 20
-83.366730000
 30
0.000000000
 11
148.163681000
 21
-83.622101000
 31
0.000000000
  0
LINE
  5
AFB
330
A02
100
AcDbEntity
  8
Sketch
100
AcDbLine
 10
148.163681000
 20
-83.622101000
 30
0.000000000
 11
145.184357000
 21
-84.558456000
 31
0.000000000
  0
LINE
  5
AFC
330
A02
100
AcDbEntity
  8
Sketch
100
AcDbLine
 10
145.184357000
 20
-84.558456000
 30
0.000000000
 11
142.659958000
 21
-86.477951000
 31
0.000000000
  0
LINE
  5
AFD
330
A02
100
AcDbEntity
  8
Sketch
100
AcDbLine
 10
142.659958000
 20
-86.477951000
 30
0.000000000
 11
141.741989000
 21
-87.242920000
 31
0.000000000
  0
LINE
  5
AFE
330
A02
100
AcDbEntity
  8
Sketch
100
AcDbLine
 10
141.741989000
 20
-87.242920000
 30
0.000000000
 11
140.288544000
 21
-88.199135000
 31
0.000000000
  0
LINE
  5
AFF
330
A02
100
AcDbEntity
  8
Sketch
100
AcDbLine
 10
140.288544000
 20
-88.199135000
 30
0.000000000
 11
139.791321000
 21
-88.696365000
 31
0.000000000
  0
LINE
  5
B00
330
A02
100
AcDbEntity
  8
Sketch
100
AcDbLine
 10
139.791321000
 20
-88.696365000
 30
0.000000000
 11
139.102844000
 21
-89.499580000
 31
0.000000000
  0
LINE
  5
B01
330
A02
100
AcDbEntity
  8
Sketch
100
AcDbLine
 10
139.102844000
 20
-89.499580000
 30
0.000000000
 11
138.720367000
 21
-90.685280000
 31
0.000000000
  0
LINE
  5
B02
330
A02
100
AcDbEntity
  8
Sketch
100
AcDbLine
 10
138.720367000
 20
-90.685280000
 30
0.000000000
 11
138.911606000
 21
-91.794487000
 31
0.000000000
  0
LINE
  5
B03
330
A02
100
AcDbEntity
  8
Sketch
100
AcDbLine
 10
138.911606000
 20
-91.794487000
 30
0.000000000
 11
139.294098000
 21
-93.362671000
 31
0.000000000
  0
LINE
  5
B04
330
A02
100
AcDbEntity
  8
Sketch
100
AcDbLine
 10
139.294098000
 20
-93.362671000
 30
0.000000000
 11
139.370590000
 21
-94.586624000
 31
0.000000000
  0
LINE
  5
B05
330
A02
100
AcDbEntity
  8
Sketch
100
AcDbLine
 10
139.370590000
 20
-94.586624000
 30
0.000000000
 11
138.477402000
 21
-95.068428000
 31
0.000000000
  0
LINE
  5
B06
330
A02
100
AcDbEntity
  8
Sketch
100
AcDbLine
 10
138.477402000
 20
-95.068428000
 30
0.000000000
 11
135.113800000
 21
-96.049477000
 31
0.000000000
  0
LINE
  5
B07
330
A02
100
AcDbEntity
  8
Sketch
100
AcDbLine
 10
135.113800000
 20
-96.049477000
 30
0.000000000
 11
133.525421000
 21
-97.123962000
 31
0.000000000
  0
LINE
  5
B08
330
A02
100
AcDbEntity
  8
Sketch
100
AcDbLine
 10
133.525421000
 20
-97.123962000
 30
0.000000000
 11
132.684525000
 21
-97.964867000
 31
0.000000000
  0
LINE
  5
B09
330
A02
100
AcDbEntity
  8
Sketch
100
AcDbLine
 10
132.684525000
 20
-97.964867000
 30
0.000000000
 11
131.516602000
 21
-99.226219000
 31
0.000000000
  0
LINE
  5
B0A
330
A02
100
AcDbEntity
  8
Sketch
100
AcDbLine
 10
131.516602000
 20
-99.226219000
 30
0.000000000
 11
130.301971000
 21
-101.235039000
 31
0.000000000
  0
LINE
  5
B0B
330
A02
100
AcDbEntity
  8
Sketch
100
AcDbLine
 10
130.301971000
 20
-101.235039000
 30
0.000000000
 11
128.153000000
 21
-104.084763000
 31
0.000000000
  0
LINE
  5
B0C
330
A02
100
AcDbEntity
  8
Sketch
100
AcDbLine
 10
128.153000000
 20
-104.084763000
 30
0.000000000
 11
127.358810000
 21
-105.579697000
 31
0.000000000
  0
LINE
  5
B0D
330
A02
100
AcDbEntity
  8
Sketch
100
AcDbLine
 10
127.358810000
 20
-105.579697000
 30
0.000000000
 11
126.517914000
 21
-106.747612000
 31
0.000000000
  0
LINE
  5
B0E
330
A02
100
AcDbEntity
  8
Sketch
100
AcDbLine
 10
126.517914000
 20
-106.747612000
 30
0.000000000
 11
125.583580000
 21
-108.102402000
 31
0.000000000
  0
LINE
  5
B0F
330
A02
100
AcDbEntity
  8
Sketch
100
AcDbLine
 10
125.583580000
 20
-108.102402000
 30
0.000000000
 11
124.088646000
 21
-109.457184000
 31
0.000000000
  0
LINE
  5
B10
330
A02
100
AcDbEntity
  8
Sketch
100
AcDbLine
 10
124.088646000
 20
-109.457184000
 30
0.000000000
 11
123.107590000
 21
-110.952118000
 31
0.000000000
  0
LINE
  5
B11
330
A02
100
AcDbEntity
  8
Sketch
100
AcDbLine
 10
123.107590000
 20
-110.952118000
 30
0.000000000
 11
122.313408000
 21
-111.793022000
 31
0.000000000
  0
LINE
  5
B12
330
A02
100
AcDbEntity
  8
Sketch
100
AcDbLine
 10
122.313408000
 20
-111.793022000
 30
0.000000000
 11
121.192207000
 21
-112.914223000
 31
0.000000000
  0
LINE
  5
B13
330
A02
100
AcDbEntity
  8
Sketch
100
AcDbLine
 10
121.192207000
 20
-112.914223000
 30
0.000000000
 11
119.837418000
 21
-114.409157000
 31
0.000000000
  0
LINE
  5
B14
330
A02
100
AcDbEntity
  8
Sketch
100
AcDbLine
 10
119.837418000
 20
-114.409157000
 30
0.000000000
 11
119.324554000
 21
-116.595207000
 31
0.000000000
  0
LINE
  5
B15
330
A02
100
AcDbEntity
  8
Sketch
100
AcDbLine
 10
119.324554000
 20
-116.595207000
 30
0.000000000
 11
118.976082000
 21
-118.895081000
 31
0.000000000
  0
LINE
  5
B16
330
A02
100
AcDbEntity
  8
Sketch
100
AcDbLine
 10
118.976082000
 20
-118.895081000
 30
0.000000000
 11
118.906395000
 21
-120.358643000
 31
0.000000000
  0
LINE
  5
B17
330
A02
100
AcDbEntity
  8
Sketch
100
AcDbLine
 10
118.906395000
 20
-120.358643000
 30
0.000000000
 11
118.906395000
 21
-122.170662000
 31
0.000000000
  0
LINE
  5
B18
330
A02
100
AcDbEntity
  8
Sketch
100
AcDbLine
 10
118.906395000
 20
-122.170662000
 30
0.000000000
 11
118.767006000
 21
-123.843300000
 31
0.000000000
  0
LINE
  5
B19
330
A02
100
AcDbEntity
  8
Sketch
100
AcDbLine
 10
118.767006000
 20
-123.843300000
 30
0.000000000
 11
118.418541000
 21
-125.028084000
 31
0.000000000
  0
LINE
  5
B1A
330
A02
100
AcDbEntity
  8
Sketch
100
AcDbLine
 10
118.418541000
 20
-125.028084000
 30
0.000000000
 11
117.930687000
 21
-126.143173000
 31
0.000000000
  0
LINE
  5
B1B
330
A02
100
AcDbEntity
  8
Sketch
100
AcDbLine
 10
117.930687000
 20
-126.143173000
 30
0.000000000
 11
117.651917000
 21
-127.467346000
 31
0.000000000
  0
LINE
  5
B1C
330
A02
100
AcDbEntity
  8
Sketch
100
AcDbLine
 10
117.651917000
 20
-127.467346000
 30
0.000000000
 11
116.954987000
 21
-128.094589000
 31
0.000000000
  0
LINE
  5
B1D
330
A02
100
AcDbEntity
  8
Sketch
100
AcDbLine
 10
116.954987000
 20
-128.094589000
 30
0.000000000
 11
116.048973000
 21
-129.070282000
 31
0.000000000
  0
LINE
  5
B1E
330
A02
100
AcDbEntity
  8
Sketch
100
AcDbLine
 10
116.048973000
 20
-129.070282000
 30
0.000000000
 11
114.376335000
 21
-130.115692000
 31
0.000000000
  0
LINE
  5
B1F
330
A02
100
AcDbEntity
  8
Sketch
100
AcDbLine
 10
114.376335000
 20
-130.115692000
 30
0.000000000
 11
113.679405000
 21
-130.882309000
 31
0.000000000
  0
LINE
  5
B20
330
A02
100
AcDbEntity
  8
Sketch
100
AcDbLine
 10
113.679405000
 20
-130.882309000
 30
0.000000000
 11
111.797684000
 21
-131.858017000
 31
0.000000000
  0
LINE
  5
B21
330
A02
100
AcDbEntity
  8
Sketch
100
AcDbLine
 10
111.797684000
 20
-131.858017000
 30
0.000000000
 11
110.543213000
 21
-132.276169000
 31
0.000000000
  0
LINE
  5
B22
330
A02
100
AcDbEntity
  8
Sketch
100
AcDbLine
 10
110.543213000
 20
-132.276169000
 30
0.000000000
 11
108.452415000
 21
-132.973114000
 31
0.000000000
  0
LINE
  5
B23
330
A02
100
AcDbEntity
  8
Sketch
100
AcDbLine
 10
108.452415000
 20
-132.973114000
 30
0.000000000
 11
107.337326000
 21
-133.251877000
 31
0.000000000
  0
LINE
  5
B24
330
A02
100
AcDbEntity
  8
Sketch
100
AcDbLine
 10
107.337326000
 20
-133.251877000
 30
0.000000000
 11
105.525299000
 21
-134.227585000
 31
0.000000000
  0
LINE
  5
B25
330
A02
100
AcDbEntity
  8
Sketch
100
AcDbLine
 10
105.525299000
 20
-134.227585000
 30
0.000000000
 11
103.504196000
 21
-134.924515000
 31
0.000000000
  0
LINE
  5
B26
330
A02
100
AcDbEntity
  8
Sketch
100
AcDbLine
 10
103.504196000
 20
-134.924515000
 30
0.000000000
 11
101.622482000
 21
-135.691147000
 31
0.000000000
  0
LINE
  5
B27
330
A02
100
AcDbEntity
  8
Sketch
100
AcDbLine
 10
101.622482000
 20
-135.691147000
 30
0.000000000
 11
98.765053000
 21
-136.388077000
 31
0.000000000
  0
LINE
  5
B28
330
A02
100
AcDbEntity
  8
Sketch
100
AcDbLine
 10
98.765053000
 20
-136.388077000
 30
0.000000000
 11
97.231804000
 21
-137.572861000
 31
0.000000000
  0
LINE
  5
B29
330
A02
100
AcDbEntity
  8
Sketch
100
AcDbLine
 10
97.231804000
 20
-137.572861000
 30
0.000000000
 11
96.534874000
 21
-138.897034000
 31
0.000000000
  0
LINE
  5
B2A
330
A02
100
AcDbEntity
  8
Sketch
100
AcDbLine
 10
96.534874000
 20
-138.897034000
 30
0.000000000
 11
94.452621000
 21
-141.250702000
 31
0.000000000
  0
LINE
  5
B2B
330
A02
100
AcDbEntity
  8
Sketch
100
AcDbLine
 10
94.452621000
 20
-141.250702000
 30
0.000000000
 11
91.873978000
 21
-142.783951000
 31
0.000000000
  0
LINE
  5
B2C
330
A02
100
AcDbEntity
  8
Sketch
100
AcDbLine
 10
91.873978000
 20
-142.783951000
 30
0.000000000
 11
91.316437000
 21
-143.829346000
 31
0.000000000
  0
LINE
  5
B2D
330
A02
100
AcDbEntity
  8
Sketch
100
AcDbLine
 10
91.316437000
 20
-143.829346000
 30
0.000000000
 11
90.828575000
 21
-145.083817000
 31
0.000000000
  0
LINE
  5
B2E
330
A02
100
AcDbEntity
  8
Sketch
100
AcDbLine
 10
90.828575000
 20
-145.083817000
 30
0.000000000
 11
89.992256000
 21
-146.198914000
 31
0.000000000
  0
LINE
  5
B2F
330
A02
100
AcDbEntity
  8
Sketch
100
AcDbLine
 10
89.992256000
 20
-146.198914000
 30
0.000000000
 11
89.295326000
 21
-147.104919000
 31
0.000000000
  0
LINE
  5
B30
330
A02
100
AcDbEntity
  8
Sketch
100
AcDbLine
 10
89.295326000
 20
-147.104919000
 30
0.000000000
 11
88.528702000
 21
-147.592773000
 31
0.000000000
  0
LINE
  5
B31
330
A02
100
AcDbEntity
  8
Sketch
100
AcDbLine
 10
88.528702000
 20
-147.592773000
 30
0.000000000
 11
87.901459000
 21
-148.220016000
 31
0.000000000
  0
LINE
  5
B32
330
A02
100
AcDbEntity
  8
Sketch
100
AcDbLine
 10
87.901459000
 20
-148.220016000
 30
0.000000000
 11
87.762077000
 21
-148.638168000
 31
0.000000000
  0
LINE
  5
B33
330
A02
100
AcDbEntity
  8
Sketch
100
AcDbLine
 10
87.762077000
 20
-148.638168000
 30
0.000000000
 11
86.925758000
 21
-149.404800000
 31
0.000000000
  0
LINE
  5
B34
330
A02
100
AcDbEntity
  8
Sketch
100
AcDbLine
 10
86.925758000
 20
-149.404800000
 30
0.000000000
 11
85.950050000
 21
-150.101730000
 31
0.000000000
  0
LINE
  5
B35
330
A02
100
AcDbEntity
  8
Sketch
100
AcDbLine
 10
85.950050000
 20
-150.101730000
 30
0.000000000
 11
85.253120000
 21
-150.659271000
 31
0.000000000
  0
LINE
  5
B36
330
A02
100
AcDbEntity
  8
Sketch
100
AcDbLine
 10
85.253120000
 20
-150.659271000
 30
0.000000000
 11
84.416801000
 21
-151.077438000
 31
0.000000000
  0
LINE
  5
B37
330
A02
100
AcDbEntity
  8
Sketch
100
AcDbLine
 10
84.416801000
 20
-151.077438000
 30
0.000000000
 11
83.650177000
 21
-151.286514000
 31
0.000000000
  0
LINE
  5
B38
330
A02
100
AcDbEntity
  8
Sketch
100
AcDbLine
 10
83.650177000
 20
-151.286514000
 30
0.000000000
 11
82.047234000
 21
-151.495590000
 31
0.000000000
  0
LINE
  5
B39
330
A02
100
AcDbEntity
  8
Sketch
100
AcDbLine
 10
82.047234000
 20
-151.495590000
 30
0.000000000
 11
80.374596000
 21
-151.495590000
 31
0.000000000
  0
LINE
  5
B3A
330
A02
100
AcDbEntity
  8
Sketch
100
AcDbLine
 10
80.374596000
 20
-151.495590000
 30
0.000000000
 11
79.607971000
 21
-151.495590000
 31
0.000000000
  0
LINE
  5
B3B
330
A02
100
AcDbEntity
  8
Sketch
100
AcDbLine
 10
79.607971000
 20
-151.495590000
 30
0.000000000
 11
78.214104000
 21
-151.495590000
 31
0.000000000
  0
LINE
  5
B3C
330
A02
100
AcDbEntity
  8
Sketch
100
AcDbLine
 10
78.214104000
 20
-151.495590000
 30
0.000000000
 11
76.611160000
 21
-151.425903000
 31
0.000000000
  0
LINE
  5
B3D
330
A02
100
AcDbEntity
  8
Sketch
100
AcDbLine
 10
76.611160000
 20
-151.425903000
 30
0.000000000
 11
75.705154000
 21
-151.077438000
 31
0.000000000
  0
LINE
  5
B3E
330
A02
100
AcDbEntity
  8
Sketch
100
AcDbLine
 10
75.705154000
 20
-151.077438000
 30
0.000000000
 11
74.241592000
 21
-150.868362000
 31
0.000000000
  0
LINE
  5
B3F
330
A02
100
AcDbEntity
  8
Sketch
100
AcDbLine
 10
74.241592000
 20
-150.868362000
 30
0.000000000
 11
73.335579000
 21
-150.659271000
 31
0.000000000
  0
LINE
  5
B40
330
A02
100
AcDbEntity
  8
Sketch
100
AcDbLine
 10
73.335579000
 20
-150.659271000
 30
0.000000000
 11
72.778038000
 21
-150.659271000
 31
0.000000000
  0
LINE
  5
B41
330
A02
100
AcDbEntity
  8
Sketch
100
AcDbLine
 10
72.778038000
 20
-150.659271000
 30
0.000000000
 11
71.523560000
 21
-150.728973000
 31
0.000000000
  0
LINE
  5
B42
330
A02
100
AcDbEntity
  8
Sketch
100
AcDbLine
 10
71.523560000
 20
-150.728973000
 30
0.000000000
 11
70.199387000
 21
-150.868362000
 31
0.000000000
  0
LINE
  5
B43
330
A02
100
AcDbEntity
  8
Sketch
100
AcDbLine
 10
70.199387000
 20
-150.868362000
 30
0.000000000
 11
69.084297000
 21
-151.077438000
 31
0.000000000
  0
LINE
  5
B44
330
A02
100
AcDbEntity
  8
Sketch
100
AcDbLine
 10
69.084297000
 20
-151.077438000
 30
0.000000000
 11
48.908291000
 21
-159.862228000
 31
0.000000000
  0
LINE
  5
B45
330
A02
100
AcDbEntity
  8
Sketch
100
AcDbLine
 10
48.908291000
 20
-159.862228000
 30
0.000000000
 11
24.780319000
 21
-164.941788000
 31
0.000000000
  0
LINE
  5
B46
330
A02
100
AcDbEntity
  8
Sketch
100
AcDbLine
 10
24.780319000
 20
-164.941788000
 30
0.000000000
 11
22.367517000
 21
-165.449753000
 31
0.000000000
  0
LINE
  5
B47
330
A02
100
AcDbEntity
  8
Sketch
100
AcDbLine
 10
22.367517000
 20
-165.449753000
 30
0.000000000
 11
21.478598000
 21
-166.338684000
 31
0.000000000
  0
LINE
  5
B48
330
A02
100
AcDbEntity
  8
Sketch
100
AcDbLine
 10
21.478598000
 20
-166.338684000
 30
0.000000000
 11
19.573759000
 21
-167.989532000
 31
0.000000000
  0
LINE
  5
B49
330
A02
100
AcDbEntity
  8
Sketch
100
AcDbLine
 10
19.573759000
 20
-167.989532000
 30
0.000000000
 11
18.557840000
 21
-169.386429000
 31
0.000000000
  0
LINE
  5
B4A
330
A02
100
AcDbEntity
  8
Sketch
100
AcDbLine
 10
18.557840000
 20
-169.386429000
 30
0.000000000
 11
17.668917000
 21
-170.529327000
 31
0.000000000
  0
LINE
  5
B4B
330
A02
100
AcDbEntity
  8
Sketch
100
AcDbLine
 10
17.668917000
 20
-170.529327000
 30
0.000000000
 11
16.145042000
 21
-172.180191000
 31
0.000000000
  0
LINE
  5
B4C
330
A02
100
AcDbEntity
  8
Sketch
100
AcDbLine
 10
16.145042000
 20
-172.180191000
 30
0.000000000
 11
14.790481000
 21
-173.194046000
 31
0.000000000
  0
LINE
  5
B4D
330
A02
100
AcDbEntity
  8
Sketch
100
AcDbLine
 10
14.790481000
 20
-173.194046000
 30
0.000000000
 11
12.964559000
 21
-173.878769000
 31
0.000000000
  0
LINE
  5
B4E
330
A02
100
AcDbEntity
  8
Sketch
100
AcDbLine
 10
12.964559000
 20
-173.878769000
 30
0.000000000
 11
10.568040000
 21
-174.335251000
 31
0.000000000
  0
LINE
  5
B4F
330
A02
100
AcDbEntity
  8
Sketch
100
AcDbLine
 10
10.568040000
 20
-174.335251000
 30
0.000000000
 11
8.627998000
 21
-174.791718000
 31
0.000000000
  0
LINE
  5
B50
330
A02
100
AcDbEntity
  8
Sketch
100
AcDbLine
 10
8.627998000
 20
-174.791718000
 30
0.000000000
 11
7.144438000
 21
-174.791718000
 31
0.000000000
  0
LINE
  5
B51
330
A02
100
AcDbEntity
  8
Sketch
100
AcDbLine
 10
7.144438000
 20
-174.791718000
 30
0.000000000
 11
4.976161000
 21
-174.677597000
 31
0.000000000
  0
LINE
  5
B52
330
A02
100
AcDbEntity
  8
Sketch
100
AcDbLine
 10
4.976161000
 20
-174.677597000
 30
0.000000000
 11
3.663777000
 21
-174.563477000
 31
0.000000000
  0
LINE
  5
B53
330
A02
100
AcDbEntity
  8
Sketch
100
AcDbLine
 10
3.663777000
 20
-174.563477000
 30
0.000000000
 11
2.351399000
 21
-174.107010000
 31
0.000000000
  0
LINE
  5
B54
330
A02
100
AcDbEntity
  8
Sketch
100
AcDbLine
 10
2.351399000
 20
-174.107010000
 30
0.000000000
 11
1.495500000
 21
-173.707581000
 31
0.000000000
  0
LINE
  5
B55
330
A02
100
AcDbEntity
  8
Sketch
100
AcDbLine
 10
1.495500000
 20
-173.707581000
 30
0.000000000
 11
0.696660000
 21
-173.365219000
 31
0.000000000
  0
LINE
  5
B56
330
A02
100
AcDbEntity
  8
Sketch
100
AcDbLine
 10
0.696660000
 20
-173.365219000
 30
0.000000000
 11
-0.444542000
 21
-172.566391000
 31
0.000000000
  0
LINE
  5
B57
330
A02
100
AcDbEntity
  8
Sketch
100
AcDbLine
 10
-0.444542000
 20
-172.566391000
 30
0.000000000
 11
-3.968982000
 21
-169.171417000
 31
0.000000000
  0
LINE
  5
B58
330
A02
100
AcDbEntity
  8
Sketch
100
AcDbLine
 10
-3.968982000
 20
-169.171417000
 30
0.000000000
 11
-6.692931000
 21
-168.320175000
 31
0.000000000
  0
LINE
  5
B59
330
A02
100
AcDbEntity
  8
Sketch
100
AcDbLine
 10
-6.692931000
 20
-168.320175000
 30
0.000000000
 11
-9.502010000
 21
-167.639191000
 31
0.000000000
  0
LINE
  5
B5A
330
A02
100
AcDbEntity
  8
Sketch
100
AcDbLine
 10
-9.502010000
 20
-167.639191000
 30
0.000000000
 11
-11.800342000
 21
-166.958206000
 31
0.000000000
  0
LINE
  5
B5B
330
A02
100
AcDbEntity
  8
Sketch
100
AcDbLine
 10
-11.800342000
 20
-166.958206000
 30
0.000000000
 11
-14.524298000
 21
-166.532578000
 31
0.000000000
  0
LINE
  5
B5C
330
A02
100
AcDbEntity
  8
Sketch
100
AcDbLine
 10
-14.524298000
 20
-166.532578000
 30
0.000000000
 11
-16.567261000
 21
-166.192093000
 31
0.000000000
  0
LINE
  5
B5D
330
A02
100
AcDbEntity
  8
Sketch
100
AcDbLine
 10
-16.567261000
 20
-166.192093000
 30
0.000000000
 11
-18.695353000
 21
-166.021835000
 31
0.000000000
  0
LINE
  5
B5E
330
A02
100
AcDbEntity
  8
Sketch
100
AcDbLine
 10
-18.695353000
 20
-166.021835000
 30
0.000000000
 11
-20.312698000
 21
-165.766479000
 31
0.000000000
  0
LINE
  5
B5F
330
A02
100
AcDbEntity
  8
Sketch
100
AcDbLine
 10
-20.312698000
 20
-165.766479000
 30
0.000000000
 11
-22.355661000
 21
-165.596222000
 31
0.000000000
  0
LINE
  5
B60
330
A02
100
AcDbEntity
  8
Sketch
100
AcDbLine
 10
-22.355661000
 20
-165.596222000
 30
0.000000000
 11
-24.739126000
 21
-165.596222000
 31
0.000000000
  0
LINE
  5
B61
330
A02
100
AcDbEntity
  8
Sketch
100
AcDbLine
 10
-24.739126000
 20
-165.596222000
 30
0.000000000
 11
-26.015976000
 21
-165.596222000
 31
0.000000000
  0
LINE
  5
B62
330
A02
100
AcDbEntity
  8
Sketch
100
AcDbLine
 10
-26.015976000
 20
-165.596222000
 30
0.000000000
 11
-27.122580000
 21
-165.936722000
 31
0.000000000
  0
LINE
  5
B63
330
A02
100
AcDbEntity
  8
Sketch
100
AcDbLine
 10
-27.122580000
 20
-165.936722000
 30
0.000000000
 11
-27.803568000
 21
-166.192093000
 31
0.000000000
  0
LINE
  5
B64
330
A02
100
AcDbEntity
  8
Sketch
100
AcDbLine
 10
-27.803568000
 20
-166.192093000
 30
0.000000000
 11
-28.484558000
 21
-166.873077000
 31
0.000000000
  0
LINE
  5
B65
330
A02
100
AcDbEntity
  8
Sketch
100
AcDbLine
 10
-28.484558000
 20
-166.873077000
 30
0.000000000
 11
-29.335791000
 21
-167.724319000
 31
0.000000000
  0
LINE
  5
B66
330
A02
100
AcDbEntity
  8
Sketch
100
AcDbLine
 10
-29.335791000
 20
-167.724319000
 30
0.000000000
 11
-29.931656000
 21
-168.830917000
 31
0.000000000
  0
LINE
  5
B67
330
A02
100
AcDbEntity
  8
Sketch
100
AcDbLine
 10
-29.931656000
 20
-168.830917000
 30
0.000000000
 11
-30.442398000
 21
-169.597031000
 31
0.000000000
  0
LINE
  5
B68
330
A02
100
AcDbEntity
  8
Sketch
100
AcDbLine
 10
-30.442398000
 20
-169.597031000
 30
0.000000000
 11
-31.634125000
 21
-170.022644000
 31
0.000000000
  0
LINE
  5
B69
330
A02
100
AcDbEntity
  8
Sketch
100
AcDbLine
 10
-31.634125000
 20
-170.022644000
 30
0.000000000
 11
-32.996105000
 21
-170.192902000
 31
0.000000000
  0
LINE
  5
B6A
330
A02
100
AcDbEntity
  8
Sketch
100
AcDbLine
 10
-32.996105000
 20
-170.192902000
 30
0.000000000
 11
-34.783695000
 21
-170.278015000
 31
0.000000000
  0
LINE
  5
B6B
330
A02
100
AcDbEntity
  8
Sketch
100
AcDbLine
 10
-34.783695000
 20
-170.278015000
 30
0.000000000
 11
-36.401043000
 21
-170.278015000
 31
0.000000000
  0
LINE
  5
B6C
330
A02
100
AcDbEntity
  8
Sketch
100
AcDbLine
 10
-36.401043000
 20
-170.278015000
 30
0.000000000
 11
-38.018391000
 21
-170.107773000
 31
0.000000000
  0
LINE
  5
B6D
330
A02
100
AcDbEntity
  8
Sketch
100
AcDbLine
 10
-38.018391000
 20
-170.107773000
 30
0.000000000
 11
-39.210121000
 21
-169.682159000
 31
0.000000000
  0
LINE
  5
B6E
330
A02
100
AcDbEntity
  8
Sketch
100
AcDbLine
 10
-39.210121000
 20
-169.682159000
 30
0.000000000
 11
-39.891109000
 21
-169.001160000
 31
0.000000000
  0
LINE
  5
B6F
330
A02
100
AcDbEntity
  8
Sketch
100
AcDbLine
 10
-39.891109000
 20
-169.001160000
 30
0.000000000
 11
-40.742344000
 21
-167.894562000
 31
0.000000000
  0
LINE
  5
B70
330
A02
100
AcDbEntity
  8
Sketch
100
AcDbLine
 10
-40.742344000
 20
-167.894562000
 30
0.000000000
 11
-41.423332000
 21
-167.213577000
 31
0.000000000
  0
LINE
  5
B71
330
A02
100
AcDbEntity
  8
Sketch
100
AcDbLine
 10
-41.423332000
 20
-167.213577000
 30
0.000000000
 11
-41.848949000
 21
-165.766479000
 31
0.000000000
  0
LINE
  5
B72
330
A02
100
AcDbEntity
  8
Sketch
100
AcDbLine
 10
-41.848949000
 20
-165.766479000
 30
0.000000000
 11
-42.359692000
 21
-164.744995000
 31
0.000000000
  0
LINE
  5
B73
330
A02
100
AcDbEntity
  8
Sketch
100
AcDbLine
 10
-42.359692000
 20
-164.744995000
 30
0.000000000
 11
-42.444817000
 21
-164.234253000
 31
0.000000000
  0
LINE
  5
B74
330
A02
100
AcDbEntity
  8
Sketch
100
AcDbLine
 10
-42.444817000
 20
-164.234253000
 30
0.000000000
 11
-42.870430000
 21
-163.297897000
 31
0.000000000
  0
LINE
  5
B75
330
A02
100
AcDbEntity
  8
Sketch
100
AcDbLine
 10
-42.870430000
 20
-163.297897000
 30
0.000000000
 11
-43.977039000
 21
-162.446655000
 31
0.000000000
  0
LINE
  5
B76
330
A02
100
AcDbEntity
  8
Sketch
100
AcDbLine
 10
-43.977039000
 20
-162.446655000
 30
0.000000000
 11
-44.743153000
 21
-162.021042000
 31
0.000000000
  0
LINE
  5
B77
330
A02
100
AcDbEntity
  8
Sketch
100
AcDbLine
 10
-44.743153000
 20
-162.021042000
 30
0.000000000
 11
-46.275375000
 21
-161.510300000
 31
0.000000000
  0
LINE
  5
B78
330
A02
100
AcDbEntity
  8
Sketch
100
AcDbLine
 10
-46.275375000
 20
-161.510300000
 30
0.000000000
 11
-47.467102000
 21
-161.169800000
 31
0.000000000
  0
LINE
  5
B79
330
A02
100
AcDbEntity
  8
Sketch
100
AcDbLine
 10
-47.467102000
 20
-161.169800000
 30
0.000000000
 11
-60.405880000
 21
-157.254120000
 31
0.000000000
  0
LINE
  5
B7A
330
A02
100
AcDbEntity
  8
Sketch
100
AcDbLine
 10
-60.405880000
 20
-157.254120000
 30
0.000000000
 11
-62.337433000
 21
-156.785583000
 31
0.000000000
  0
LINE
  5
B7B
330
A02
100
AcDbEntity
  8
Sketch
100
AcDbLine
 10
-62.337433000
 20
-156.785583000
 30
0.000000000
 11
-64.019234000
 21
-157.112610000
 31
0.000000000
  0
LINE
  5
B7C
330
A02
100
AcDbEntity
  8
Sketch
100
AcDbLine
 10
-64.019234000
 20
-157.112610000
 30
0.000000000
 11
-65.327309000
 21
-157.766647000
 31
0.000000000
  0
LINE
  5
B7D
330
A02
100
AcDbEntity
  8
Sketch
100
AcDbLine
 10
-65.327309000
 20
-157.766647000
 30
0.000000000
 11
-67.102547000
 21
-158.280518000
 31
0.000000000
  0
LINE
  5
B7E
330
A02
100
AcDbEntity
  8
Sketch
100
AcDbLine
 10
-67.102547000
 20
-158.280518000
 30
0.000000000
 11
-68.877785000
 21
-158.794403000
 31
0.000000000
  0
LINE
  5
B7F
330
A02
100
AcDbEntity
  8
Sketch
100
AcDbLine
 10
-68.877785000
 20
-158.794403000
 30
0.000000000
 11
-72.474976000
 21
-159.308289000
 31
0.000000000
  0
LINE
  5
B80
330
A02
100
AcDbEntity
  8
Sketch
100
AcDbLine
 10
-72.474976000
 20
-159.308289000
 30
0.000000000
 11
-73.876480000
 21
-159.028000000
 31
0.000000000
  0
LINE
  5
B81
330
A02
100
AcDbEntity
  8
Sketch
100
AcDbLine
 10
-73.876480000
 20
-159.028000000
 30
0.000000000
 11
-75.044403000
 21
-158.887848000
 31
0.000000000
  0
LINE
  5
B82
330
A02
100
AcDbEntity
  8
Sketch
100
AcDbLine
 10
-75.044403000
 20
-158.887848000
 30
0.000000000
 11
-77.006500000
 21
-158.187088000
 31
0.000000000
  0
LINE
  5
B83
330
A02
100
AcDbEntity
  8
Sketch
100
AcDbLine
 10
-77.006500000
 20
-158.187088000
 30
0.000000000
 11
-78.454720000
 21
-157.533051000
 31
0.000000000
  0
LINE
  5
B84
330
A02
100
AcDbEntity
  8
Sketch
100
AcDbLine
 10
-78.454720000
 20
-157.533051000
 30
0.000000000
 11
-80.229965000
 21
-156.552002000
 31
0.000000000
  0
LINE
  5
B85
330
A02
100
AcDbEntity
  8
Sketch
100
AcDbLine
 10
-80.229965000
 20
-156.552002000
 30
0.000000000
 11
-81.491310000
 21
-155.057068000
 31
0.000000000
  0
LINE
  5
B86
330
A02
100
AcDbEntity
  8
Sketch
100
AcDbLine
 10
-81.491310000
 20
-155.057068000
 30
0.000000000
 11
-82.425652000
 21
-154.076019000
 31
0.000000000
  0
LINE
  5
B87
330
A02
100
AcDbEntity
  8
Sketch
100
AcDbLine
 10
-82.425652000
 20
-154.076019000
 30
0.000000000
 11
-83.500137000
 21
-152.767944000
 31
0.000000000
  0
LINE
  5
B88
330
A02
100
AcDbEntity
  8
Sketch
100
AcDbLine
 10
-83.500137000
 20
-152.767944000
 30
0.000000000
 11
-84.621338000
 21
-151.039429000
 31
0.000000000
  0
LINE
  5
B89
330
A02
100
AcDbEntity
  8
Sketch
100
AcDbLine
 10
-84.621338000
 20
-151.039429000
 30
0.000000000
 11
-85.602394000
 21
-150.058365000
 31
0.000000000
  0
LINE
  5
B8A
330
A02
100
AcDbEntity
  8
Sketch
100
AcDbLine
 10
-85.602394000
 20
-150.058365000
 30
0.000000000
 11
-87.424347000
 21
-148.983887000
 31
0.000000000
  0
LINE
  5
B8B
330
A02
100
AcDbEntity
  8
Sketch
100
AcDbLine
 10
-87.424347000
 20
-148.983887000
 30
0.000000000
 11
-88.265251000
 21
-148.470001000
 31
0.000000000
  0
LINE
  5
B8C
330
A02
100
AcDbEntity
  8
Sketch
100
AcDbLine
 10
-88.265251000
 20
-148.470001000
 30
0.000000000
 11
-89.386452000
 21
-148.049545000
 31
0.000000000
  0
LINE
  5
B8D
330
A02
100
AcDbEntity
  8
Sketch
100
AcDbLine
 10
-89.386452000
 20
-148.049545000
 30
0.000000000
 11
-91.650253000
 21
-147.793472000
 31
0.000000000
  0
LINE
  5
B8E
330
A02
100
AcDbEntity
  8
Sketch
100
AcDbLine
 10
-91.650253000
 20
-147.793472000
 30
0.000000000
 11
-93.332054000
 21
-147.886902000
 31
0.000000000
  0
LINE
  5
B8F
330
A02
100
AcDbEntity
  8
Sketch
100
AcDbLine
 10
-93.332054000
 20
-147.886902000
 30
0.000000000
 11
-96.135063000
 21
-147.886902000
 31
0.000000000
  0
LINE
  5
B90
330
A02
100
AcDbEntity
  8
Sketch
100
AcDbLine
 10
-96.135063000
 20
-147.886902000
 30
0.000000000
 11
-98.003738000
 21
-147.559891000
 31
0.000000000
  0
LINE
  5
B91
330
A02
100
AcDbEntity
  8
Sketch
100
AcDbLine
 10
-98.003738000
 20
-147.559891000
 30
0.000000000
 11
-99.451958000
 21
-146.765701000
 31
0.000000000
  0
LINE
  5
B92
330
A02
100
AcDbEntity
  8
Sketch
100
AcDbLine
 10
-99.451958000
 20
-146.765701000
 30
0.000000000
 11
-100.526443000
 21
-145.831360000
 31
0.000000000
  0
LINE
  5
B93
330
A02
100
AcDbEntity
  8
Sketch
100
AcDbLine
 10
-100.526443000
 20
-145.831360000
 30
0.000000000
 11
-101.694366000
 21
-144.523300000
 31
0.000000000
  0
LINE
  5
B94
330
A02
100
AcDbEntity
  8
Sketch
100
AcDbLine
 10
-101.694366000
 20
-144.523300000
 30
0.000000000
 11
-102.581978000
 21
-143.308655000
 31
0.000000000
  0
LINE
  5
B95
330
A02
100
AcDbEntity
  8
Sketch
100
AcDbLine
 10
-102.581978000
 20
-143.308655000
 30
0.000000000
 11
-103.002434000
 21
-142.000595000
 31
0.000000000
  0
LINE
  5
B96
330
A02
100
AcDbEntity
  8
Sketch
100
AcDbLine
 10
-103.002434000
 20
-142.000595000
 30
0.000000000
 11
-103.609749000
 21
-140.926102000
 31
0.000000000
  0
LINE
  5
B97
330
A02
100
AcDbEntity
  8
Sketch
100
AcDbLine
 10
-103.609749000
 20
-140.926102000
 30
0.000000000
 11
-104.030205000
 21
-139.244293000
 31
0.000000000
  0
LINE
  5
B98
330
A02
100
AcDbEntity
  8
Sketch
100
AcDbLine
 10
-104.030205000
 20
-139.244293000
 30
0.000000000
 11
-104.170357000
 21
-137.515778000
 31
0.000000000
  0
LINE
  5
B99
330
A02
100
AcDbEntity
  8
Sketch
100
AcDbLine
 10
-104.170357000
 20
-137.515778000
 30
0.000000000
 11
-104.170357000
 21
-136.254425000
 31
0.000000000
  0
LINE
  5
B9A
330
A02
100
AcDbEntity
  8
Sketch
100
AcDbLine
 10
-104.170357000
 20
-136.254425000
 30
0.000000000
 11
-104.217072000
 21
-135.179932000
 31
0.000000000
  0
LINE
  5
B9B
330
A02
100
AcDbEntity
  8
Sketch
100
AcDbLine
 10
-104.217072000
 20
-135.179932000
 30
0.000000000
 11
-104.357224000
 21
-134.339035000
 31
0.000000000
  0
LINE
  5
B9C
330
A02
100
AcDbEntity
  8
Sketch
100
AcDbLine
 10
-104.357224000
 20
-134.339035000
 30
0.000000000
 11
-104.590805000
 21
-132.984253000
 31
0.000000000
  0
LINE
  5
B9D
330
A02
100
AcDbEntity
  8
Sketch
100
AcDbLine
 10
-104.590805000
 20
-132.984253000
 30
0.000000000
 11
-105.291557000
 21
-131.909760000
 31
0.000000000
  0
LINE
  5
B9E
330
A02
100
AcDbEntity
  8
Sketch
100
AcDbLine
 10
-105.291557000
 20
-131.909760000
 30
0.000000000
 11
-106.179176000
 21
-130.648407000
 31
0.000000000
  0
LINE
  5
B9F
330
A02
100
AcDbEntity
  8
Sketch
100
AcDbLine
 10
-106.179176000
 20
-130.648407000
 30
0.000000000
 11
-107.487244000
 21
-129.760788000
 31
0.000000000
  0
LINE
  5
BA0
330
A02
100
AcDbEntity
  8
Sketch
100
AcDbLine
 10
-107.487244000
 20
-129.760788000
 30
0.000000000
 11
-109.075615000
 21
-128.779739000
 31
0.000000000
  0
LINE
  5
BA1
330
A02
100
AcDbEntity
  8
Sketch
100
AcDbLine
 10
-109.075615000
 20
-128.779739000
 30
0.000000000
 11
-125.534935000
 21
-113.373795000
 31
0.000000000
  0
LINE
  5
BA2
330
A02
100
AcDbEntity
  8
Sketch
100
AcDbLine
 10
-125.534935000
 20
-113.373795000
 30
0.000000000
 11
-132.245224000
 21
-107.820442000
 31
0.000000000
  0
LINE
  5
BA3
330
A02
100
AcDbEntity
  8
Sketch
100
AcDbLine
 10
-132.245224000
 20
-107.820442000
 30
0.000000000
 11
-134.327744000
 21
-104.118202000
 31
0.000000000
  0
LINE
  5
BA4
330
A02
100
AcDbEntity
  8
Sketch
100
AcDbLine
 10
-134.327744000
 20
-104.118202000
 30
0.000000000
 11
-135.716080000
 21
-99.953194000
 31
0.000000000
  0
LINE
  5
BA5
330
A02
100
AcDbEntity
  8
Sketch
100
AcDbLine
 10
-135.716080000
 20
-99.953194000
 30
0.000000000
 11
-135.947479000
 21
-96.713730000
 31
0.000000000
  0
LINE
  5
BA6
330
A02
100
AcDbEntity
  8
Sketch
100
AcDbLine
 10
-135.947479000
 20
-96.713730000
 30
0.000000000
 11
-136.873032000
 21
-93.937050000
 31
0.000000000
  0
LINE
  5
BA7
330
A02
100
AcDbEntity
  8
Sketch
100
AcDbLine
 10
-136.873032000
 20
-93.937050000
 30
0.000000000
 11
-140.343887000
 21
-91.854546000
 31
0.000000000
  0
LINE
  5
BA8
330
A02
100
AcDbEntity
  8
Sketch
100
AcDbLine
 10
-142.426392000
 20
-74.500313000
 30
0.000000000
 11
-140.343887000
 21
-91.854546000
 31
0.000000000
  0
CIRCLE
  5
BA9
330
A02
100
AcDbEntity
  8
Sketch
100
AcDbCircle
 10
-1.000000000
 20
0.000000000
 30
0.000000000
 40
30.000000000
  0
CIRCLE
  5
BAA
330
A02
100
AcDbEntity
  8
Sketch
100
AcDbCircle
 10
-50.000000000
 20
50.000000000
 30
0.000000000
 40
6.000000000
  0
CIRCLE
  5
BAB
330
A02
100
AcDbEntity
  8
Sketch
100
AcDbCircle
 10
50.000000000
 20
50.000000000
 30
0.000000000
 40
6.000000000
  0
CIRCLE
  5
BAC
330
A02
100
AcDbEntity
  8
Sketch
100
AcDbCircle
 10
-50.000000000
 20
-50.000000000
 30
0.000000000
 40
6.000000000
  0
CIRCLE
  5
BAD
330
A02
100
AcDbEntity
  8
Sketch
100
AcDbCircle
 10
50.000000000
 20
-50.000000000
 30
0.000000000
 40
6.000000000
  0
ENDSEC
  0
SECTION
  2
OBJECTS
  0
DICTIONARY
  5
F000
330
0
100
AcDbDictionary
  3
ACAD_GROUP
350
F001
  0
DICTIONARY
  5
F001
330
F000
100
AcDbDictionary
  0
ENDSEC
  0
EOF